<mxfile host="app.diagrams.net" agent="Mozilla/5.0 (Windows NT 10.0; Win64; x64) AppleWebKit/537.36 (KHTML, like Gecko) Chrome/129.0.0.0 Safari/537.36" version="24.7.17">
  <diagram name="Page-1" id="EdxtV8TakAP-i8TAQfp9">
    <mxGraphModel dx="2206" dy="1135" grid="1" gridSize="10" guides="1" tooltips="1" connect="1" arrows="1" fold="1" page="1" pageScale="1" pageWidth="1200" pageHeight="1600" math="0" shadow="0">
      <root>
        <mxCell id="0" />
        <mxCell id="1" parent="0" />
        <mxCell id="XFWaM2evA0Q7bCbQr-Yb-10" value="&lt;p&gt;&lt;font color=&quot;#33ff33&quot;&gt;GET&lt;br&gt;flight_date=2024-10-04&quot;&lt;/font&gt;&lt;/p&gt;" style="edgeStyle=orthogonalEdgeStyle;rounded=0;orthogonalLoop=1;jettySize=auto;html=1;entryX=0.5;entryY=0;entryDx=0;entryDy=0;shape=flexArrow;fillColor=#d5e8d4;strokeColor=#82b366;" parent="1" source="XFWaM2evA0Q7bCbQr-Yb-3" target="XFWaM2evA0Q7bCbQr-Yb-9" edge="1">
          <mxGeometry relative="1" as="geometry">
            <mxPoint as="offset" />
          </mxGeometry>
        </mxCell>
        <mxCell id="XFWaM2evA0Q7bCbQr-Yb-3" value="NÂ° de vol" style="text;html=1;align=center;verticalAlign=middle;whiteSpace=wrap;rounded=0;fontSize=15;" parent="1" vertex="1">
          <mxGeometry x="70" y="100" width="80" height="30" as="geometry" />
        </mxCell>
        <mxCell id="XFWaM2evA0Q7bCbQr-Yb-12" value="&lt;pre&gt;data&lt;/pre&gt;" style="edgeStyle=orthogonalEdgeStyle;rounded=0;orthogonalLoop=1;jettySize=auto;html=1;entryX=0.5;entryY=0;entryDx=0;entryDy=0;" parent="1" source="XFWaM2evA0Q7bCbQr-Yb-9" target="XFWaM2evA0Q7bCbQr-Yb-74" edge="1">
          <mxGeometry x="0.6118" relative="1" as="geometry">
            <mxPoint x="270" y="630" as="targetPoint" />
            <Array as="points">
              <mxPoint x="275" y="385" />
            </Array>
            <mxPoint as="offset" />
          </mxGeometry>
        </mxCell>
        <mxCell id="XFWaM2evA0Q7bCbQr-Yb-91" style="edgeStyle=orthogonalEdgeStyle;rounded=0;orthogonalLoop=1;jettySize=auto;html=1;exitX=1;exitY=0.5;exitDx=0;exitDy=0;entryX=0.5;entryY=0;entryDx=0;entryDy=0;" parent="1" source="XFWaM2evA0Q7bCbQr-Yb-9" target="XFWaM2evA0Q7bCbQr-Yb-88" edge="1">
          <mxGeometry relative="1" as="geometry">
            <Array as="points">
              <mxPoint x="430" y="385" />
              <mxPoint x="430" y="600" />
              <mxPoint x="564" y="600" />
            </Array>
          </mxGeometry>
        </mxCell>
        <UserObject label="&lt;pre style=&quot;forced-color-adjust: none; color: rgb(0, 0, 0); font-size: 11px; font-style: normal; font-variant-ligatures: normal; font-variant-caps: normal; font-weight: 400; letter-spacing: normal; orphans: 2; text-align: center; text-indent: 0px; text-transform: none; widows: 2; word-spacing: 0px; -webkit-text-stroke-width: 0px; text-decoration-thickness: initial; text-decoration-style: initial; text-decoration-color: initial;&quot;&gt;data&lt;/pre&gt;" link="&#xa;&lt;pre style=&quot;forced-color-adjust: none; color: rgb(0, 0, 0); font-size: 11px; font-style: normal; font-variant-ligatures: normal; font-variant-caps: normal; font-weight: 400; letter-spacing: normal; orphans: 2; text-align: center; text-indent: 0px; text-transform: none; widows: 2; word-spacing: 0px; -webkit-text-stroke-width: 0px; text-decoration-thickness: initial; text-decoration-style: initial; text-decoration-color: initial;&quot;&gt;departure.iata,arrival.iata&lt;br style=&quot;forced-color-adjust: none;&quot;&gt;&lt;/pre&gt;&#xa;&#xa;" id="XFWaM2evA0Q7bCbQr-Yb-93">
          <mxCell style="edgeStyle=orthogonalEdgeStyle;rounded=0;orthogonalLoop=1;jettySize=auto;html=1;exitX=1;exitY=0.5;exitDx=0;exitDy=0;entryX=0.5;entryY=0;entryDx=0;entryDy=0;" parent="1" source="XFWaM2evA0Q7bCbQr-Yb-9" target="XFWaM2evA0Q7bCbQr-Yb-89" edge="1">
            <mxGeometry x="0.6838" relative="1" as="geometry">
              <mxPoint as="offset" />
            </mxGeometry>
          </mxCell>
        </UserObject>
        <mxCell id="XFWaM2evA0Q7bCbQr-Yb-9" value="AviationStack:flights" style="rounded=0;whiteSpace=wrap;html=1;fillColor=#dae8fc;strokeColor=#6c8ebf;" parent="1" vertex="1">
          <mxGeometry x="35" y="360" width="150" height="50" as="geometry" />
        </mxCell>
        <mxCell id="XFWaM2evA0Q7bCbQr-Yb-106" style="edgeStyle=orthogonalEdgeStyle;rounded=0;orthogonalLoop=1;jettySize=auto;html=1;entryX=0;entryY=0.5;entryDx=0;entryDy=0;fillColor=#f8cecc;strokeColor=#b85450;" parent="1" source="XFWaM2evA0Q7bCbQr-Yb-74" target="XFWaM2evA0Q7bCbQr-Yb-97" edge="1">
          <mxGeometry relative="1" as="geometry">
            <Array as="points">
              <mxPoint x="265" y="1240" />
            </Array>
          </mxGeometry>
        </mxCell>
        <mxCell id="XFWaM2evA0Q7bCbQr-Yb-109" value="&lt;pre&gt;forecast.forecastday.hour.time=&quot;&lt;font color=&quot;#ea6b66&quot;&gt;2019-02-31 04:15&lt;/font&gt;&quot;&lt;br&gt;&lt;pre&gt;forecast.forecastday.hour.time=&quot;&lt;font color=&quot;#ea6b66&quot;&gt;2019-02-31 11:23&lt;/font&gt;&quot;&lt;/pre&gt;&lt;/pre&gt;" style="edgeLabel;html=1;align=center;verticalAlign=middle;resizable=0;points=[];" parent="XFWaM2evA0Q7bCbQr-Yb-106" vertex="1" connectable="0">
          <mxGeometry x="0.1442" y="4" relative="1" as="geometry">
            <mxPoint x="-39" y="123" as="offset" />
          </mxGeometry>
        </mxCell>
        <mxCell id="XFWaM2evA0Q7bCbQr-Yb-74" value="&lt;font style=&quot;forced-color-adjust: none; font-family: Helvetica; font-size: 12px; font-style: normal; font-variant-ligatures: normal; font-variant-caps: normal; font-weight: 400; letter-spacing: normal; orphans: 2; text-indent: 0px; text-transform: none; widows: 2; word-spacing: 0px; -webkit-text-stroke-width: 0px; white-space: nowrap; background-color: rgb(251, 251, 251); text-decoration-thickness: initial; text-decoration-style: initial; text-decoration-color: initial;&quot;&gt;&lt;span style=&quot;forced-color-adjust: none; font-size: 11px; background-color: rgb(255, 255, 255);&quot;&gt;departure.scheduled=&lt;/span&gt;&lt;/font&gt;&quot;&lt;font color=&quot;#006666&quot;&gt;2019-02-31T04:15:00+00:00&lt;/font&gt;&quot;&lt;br&gt;&lt;font style=&quot;text-wrap: nowrap;&quot;&gt;&lt;span style=&quot;font-size: 11px; background-color: rgb(255, 255, 255);&quot;&gt;arrival.scheduled=&lt;/span&gt;&lt;/font&gt;&quot;&lt;font color=&quot;#006666&quot;&gt;2019-02-31T11:23:00+00:00&lt;/font&gt;&quot;" style="text;whiteSpace=wrap;html=1;align=center;" parent="1" vertex="1">
          <mxGeometry x="200" y="646.25" width="150" height="57.5" as="geometry" />
        </mxCell>
        <mxCell id="XFWaM2evA0Q7bCbQr-Yb-82" value="&lt;pre style=&quot;forced-color-adjust: none; color: rgb(0, 0, 0); font-size: 11px; font-style: normal; font-variant-ligatures: normal; font-variant-caps: normal; font-weight: 400; letter-spacing: normal; orphans: 2; text-align: center; text-indent: 0px; text-transform: none; widows: 2; word-spacing: 0px; -webkit-text-stroke-width: 0px; text-decoration-thickness: initial; text-decoration-style: initial; text-decoration-color: initial;&quot;&gt;AirportResource.Airports.Airport.Position.Coordinate&lt;br&gt;&lt;/pre&gt;" style="edgeStyle=orthogonalEdgeStyle;rounded=0;orthogonalLoop=1;jettySize=auto;html=1;exitX=0.25;exitY=1;exitDx=0;exitDy=0;entryX=0.5;entryY=0;entryDx=0;entryDy=0;" parent="1" source="XFWaM2evA0Q7bCbQr-Yb-84" target="XFWaM2evA0Q7bCbQr-Yb-85" edge="1">
          <mxGeometry x="-0.4679" relative="1" as="geometry">
            <mxPoint as="offset" />
          </mxGeometry>
        </mxCell>
        <mxCell id="XFWaM2evA0Q7bCbQr-Yb-83" value="&lt;pre style=&quot;forced-color-adjust: none; color: rgb(0, 0, 0); font-size: 11px; font-style: normal; font-variant-ligatures: normal; font-variant-caps: normal; font-weight: 400; letter-spacing: normal; orphans: 2; text-align: center; text-indent: 0px; text-transform: none; widows: 2; word-spacing: 0px; -webkit-text-stroke-width: 0px; text-decoration-thickness: initial; text-decoration-style: initial; text-decoration-color: initial;&quot;&gt;AirportResource.Airports.Airport.Position.Coordinate&lt;br&gt;&lt;/pre&gt;" style="edgeStyle=orthogonalEdgeStyle;rounded=0;orthogonalLoop=1;jettySize=auto;html=1;exitX=0.75;exitY=1;exitDx=0;exitDy=0;entryX=0.5;entryY=0;entryDx=0;entryDy=0;" parent="1" source="XFWaM2evA0Q7bCbQr-Yb-84" target="XFWaM2evA0Q7bCbQr-Yb-86" edge="1">
          <mxGeometry x="0.337" relative="1" as="geometry">
            <mxPoint as="offset" />
          </mxGeometry>
        </mxCell>
        <mxCell id="XFWaM2evA0Q7bCbQr-Yb-84" value="LHOpenAPI:airports" style="rounded=0;whiteSpace=wrap;html=1;fillColor=#e1d5e7;strokeColor=#9673a6;" parent="1" vertex="1">
          <mxGeometry x="365" y="830" width="265" height="50" as="geometry" />
        </mxCell>
        <mxCell id="XFWaM2evA0Q7bCbQr-Yb-104" value="&lt;font color=&quot;#33ff33&quot;&gt;&lt;span style=&quot;font-family: Helvetica; font-size: 11px; font-style: normal; font-variant-ligatures: normal; font-variant-caps: normal; font-weight: 400; letter-spacing: normal; orphans: 2; text-align: center; text-indent: 0px; text-transform: none; widows: 2; word-spacing: 0px; -webkit-text-stroke-width: 0px; white-space: nowrap; background-color: rgb(255, 255, 255); text-decoration-thickness: initial; text-decoration-style: initial; text-decoration-color: initial; float: none; display: inline !important;&quot;&gt;GET&lt;/span&gt;&lt;br style=&quot;forced-color-adjust: none; font-family: Helvetica; font-size: 11px; font-style: normal; font-variant-ligatures: normal; font-variant-caps: normal; font-weight: 400; letter-spacing: normal; orphans: 2; text-align: center; text-indent: 0px; text-transform: none; widows: 2; word-spacing: 0px; -webkit-text-stroke-width: 0px; white-space: nowrap; background-color: rgb(255, 255, 255); text-decoration-thickness: initial; text-decoration-style: initial; text-decoration-color: initial;&quot;&gt;&lt;span style=&quot;font-family: Helvetica; font-size: 11px; font-style: normal; font-variant-ligatures: normal; font-variant-caps: normal; font-weight: 400; letter-spacing: normal; orphans: 2; text-align: center; text-indent: 0px; text-transform: none; widows: 2; word-spacing: 0px; -webkit-text-stroke-width: 0px; white-space: nowrap; background-color: rgb(255, 255, 255); text-decoration-thickness: initial; text-decoration-style: initial; text-decoration-color: initial; float: none; display: inline !important;&quot;&gt;q=&lt;/span&gt;&lt;span style=&quot;font-family: LufthansaTextWeb-Regular, sans-serif; font-size: 11.9px; background-color: rgb(251, 251, 251);&quot;&gt;49.0097,&lt;/span&gt;&lt;span style=&quot;font-family: LufthansaTextWeb-Regular, sans-serif; font-size: 11.9px; background-color: rgb(251, 251, 251);&quot;&gt;2.5478&lt;/span&gt;&lt;/font&gt;" style="edgeStyle=orthogonalEdgeStyle;rounded=0;orthogonalLoop=1;jettySize=auto;html=1;entryX=0.25;entryY=0;entryDx=0;entryDy=0;shape=flexArrow;fillColor=#d5e8d4;strokeColor=#82b366;" parent="1" source="XFWaM2evA0Q7bCbQr-Yb-85" target="XFWaM2evA0Q7bCbQr-Yb-97" edge="1">
          <mxGeometry x="0.0081" relative="1" as="geometry">
            <mxPoint as="offset" />
          </mxGeometry>
        </mxCell>
        <mxCell id="XFWaM2evA0Q7bCbQr-Yb-85" value="&lt;span style=&quot;color: rgb(0, 0, 0); font-family: Helvetica; font-size: 12px; font-style: normal; font-variant-ligatures: normal; font-variant-caps: normal; font-weight: 400; letter-spacing: normal; orphans: 2; text-indent: 0px; text-transform: none; widows: 2; word-spacing: 0px; -webkit-text-stroke-width: 0px; white-space: nowrap; background-color: rgb(251, 251, 251); text-decoration-thickness: initial; text-decoration-style: initial; text-decoration-color: initial; float: none; display: inline !important;&quot;&gt;latitude=&lt;/span&gt;&lt;span style=&quot;forced-color-adjust: none; font-style: normal; font-variant-ligatures: normal; font-variant-caps: normal; font-weight: 400; letter-spacing: normal; orphans: 2; text-indent: 0px; text-transform: none; widows: 2; word-spacing: 0px; -webkit-text-stroke-width: 0px; white-space: nowrap; background-color: transparent; text-decoration-thickness: initial; text-decoration-style: initial; text-decoration-color: initial; color: rgb(0, 102, 102); font-family: LufthansaTextWeb-Regular, sans-serif; font-size: 11.9px;&quot;&gt;49.0097&lt;/span&gt;&lt;br style=&quot;forced-color-adjust: none; color: rgb(0, 0, 0); font-family: Helvetica; font-size: 12px; font-style: normal; font-variant-ligatures: normal; font-variant-caps: normal; font-weight: 400; letter-spacing: normal; orphans: 2; text-indent: 0px; text-transform: none; widows: 2; word-spacing: 0px; -webkit-text-stroke-width: 0px; white-space: nowrap; background-color: rgb(251, 251, 251); text-decoration-thickness: initial; text-decoration-style: initial; text-decoration-color: initial;&quot;&gt;&lt;span style=&quot;color: rgb(0, 0, 0); font-family: Helvetica; font-size: 12px; font-style: normal; font-variant-ligatures: normal; font-variant-caps: normal; font-weight: 400; letter-spacing: normal; orphans: 2; text-indent: 0px; text-transform: none; widows: 2; word-spacing: 0px; -webkit-text-stroke-width: 0px; white-space: nowrap; background-color: rgb(251, 251, 251); text-decoration-thickness: initial; text-decoration-style: initial; text-decoration-color: initial; float: none; display: inline !important;&quot;&gt;longitude=&lt;/span&gt;&lt;span style=&quot;forced-color-adjust: none; font-style: normal; font-variant-ligatures: normal; font-variant-caps: normal; font-weight: 400; letter-spacing: normal; orphans: 2; text-indent: 0px; text-transform: none; widows: 2; word-spacing: 0px; -webkit-text-stroke-width: 0px; white-space: nowrap; background-color: transparent; text-decoration-thickness: initial; text-decoration-style: initial; text-decoration-color: initial; color: rgb(0, 102, 102); font-family: LufthansaTextWeb-Regular, sans-serif; font-size: 11.9px;&quot;&gt;2.5478&lt;/span&gt;" style="text;whiteSpace=wrap;html=1;align=center;" parent="1" vertex="1">
          <mxGeometry x="366" y="1030" width="130" height="50" as="geometry" />
        </mxCell>
        <mxCell id="XFWaM2evA0Q7bCbQr-Yb-105" value="&lt;font color=&quot;#33ff33&quot;&gt;&lt;font style=&quot;forced-color-adjust: none;&quot;&gt;&lt;span style=&quot;forced-color-adjust: none; font-family: Helvetica; font-size: 11px; font-style: normal; font-variant-ligatures: normal; font-variant-caps: normal; font-weight: 400; letter-spacing: normal; orphans: 2; text-align: center; text-indent: 0px; text-transform: none; widows: 2; word-spacing: 0px; -webkit-text-stroke-width: 0px; white-space: nowrap; background-color: rgb(255, 255, 255); text-decoration-thickness: initial; text-decoration-style: initial; text-decoration-color: initial; float: none; display: inline !important;&quot;&gt;GET&lt;/span&gt;&lt;br style=&quot;forced-color-adjust: none; font-family: Helvetica; font-size: 11px; font-style: normal; font-variant-ligatures: normal; font-variant-caps: normal; font-weight: 400; letter-spacing: normal; orphans: 2; text-align: center; text-indent: 0px; text-transform: none; widows: 2; word-spacing: 0px; -webkit-text-stroke-width: 0px; white-space: nowrap; background-color: rgb(255, 255, 255); text-decoration-thickness: initial; text-decoration-style: initial; text-decoration-color: initial;&quot;&gt;&lt;span style=&quot;forced-color-adjust: none; font-family: Helvetica; font-size: 11px; font-style: normal; font-variant-ligatures: normal; font-variant-caps: normal; font-weight: 400; letter-spacing: normal; orphans: 2; text-align: center; text-indent: 0px; text-transform: none; widows: 2; word-spacing: 0px; -webkit-text-stroke-width: 0px; white-space: nowrap; background-color: rgb(255, 255, 255); text-decoration-thickness: initial; text-decoration-style: initial; text-decoration-color: initial; float: none; display: inline !important;&quot;&gt;q=&lt;/span&gt;&lt;/font&gt;&lt;span style=&quot;font-family: LufthansaTextWeb-Regular, sans-serif; font-size: 11.9px; text-align: left; text-wrap: wrap; background-color: rgb(251, 251, 251);&quot;&gt;33.9425,&lt;/span&gt;&lt;span style=&quot;text-wrap: wrap; background: transparent; font-size: 11.9px; text-align: left; margin: 0px; padding: 0px; border: 0px; outline: 0px; vertical-align: baseline; font-family: LufthansaTextWeb-Regular, sans-serif; box-sizing: border-box !important;&quot; class=&quot;pun&quot;&gt;-&lt;/span&gt;&lt;span style=&quot;text-wrap: wrap; background: transparent; font-size: 11.9px; text-align: left; margin: 0px; padding: 0px; border: 0px; outline: 0px; vertical-align: baseline; font-family: LufthansaTextWeb-Regular, sans-serif; box-sizing: border-box !important;&quot; class=&quot;lit&quot;&gt;118.4081&lt;/span&gt;&lt;/font&gt;" style="edgeStyle=orthogonalEdgeStyle;rounded=0;orthogonalLoop=1;jettySize=auto;html=1;entryX=0.75;entryY=0;entryDx=0;entryDy=0;shape=flexArrow;fillColor=#d5e8d4;strokeColor=#82b366;" parent="1" source="XFWaM2evA0Q7bCbQr-Yb-86" target="XFWaM2evA0Q7bCbQr-Yb-97" edge="1">
          <mxGeometry relative="1" as="geometry" />
        </mxCell>
        <mxCell id="XFWaM2evA0Q7bCbQr-Yb-86" value="&lt;span style=&quot;color: rgb(0, 0, 0); font-family: Helvetica; font-size: 12px; font-style: normal; font-variant-ligatures: normal; font-variant-caps: normal; font-weight: 400; letter-spacing: normal; orphans: 2; text-indent: 0px; text-transform: none; widows: 2; word-spacing: 0px; -webkit-text-stroke-width: 0px; white-space: nowrap; background-color: rgb(251, 251, 251); text-decoration-thickness: initial; text-decoration-style: initial; text-decoration-color: initial; float: none; display: inline !important;&quot;&gt;latitude=&lt;span style=&quot;background-color: transparent; color: rgb(0, 102, 102); font-family: LufthansaTextWeb-Regular, sans-serif; font-size: 11.9px; text-align: left; text-wrap: wrap;&quot;&gt;33.9425&lt;/span&gt;&lt;br&gt;&lt;/span&gt;&lt;span style=&quot;color: rgb(0, 0, 0); font-family: Helvetica; font-size: 12px; font-style: normal; font-variant-ligatures: normal; font-variant-caps: normal; font-weight: 400; letter-spacing: normal; orphans: 2; text-indent: 0px; text-transform: none; widows: 2; word-spacing: 0px; -webkit-text-stroke-width: 0px; white-space: nowrap; background-color: rgb(251, 251, 251); text-decoration-thickness: initial; text-decoration-style: initial; text-decoration-color: initial; float: none; display: inline !important;&quot;&gt;longitude=&lt;/span&gt;&lt;span style=&quot;font-size: 11.9px; text-align: left; margin: 0px; padding: 0px; border: 0px; outline: 0px; vertical-align: baseline; background: transparent; font-family: LufthansaTextWeb-Regular, sans-serif; color: rgb(102, 102, 0); box-sizing: border-box !important;&quot; class=&quot;pun&quot;&gt;-&lt;/span&gt;&lt;span style=&quot;font-size: 11.9px; text-align: left; margin: 0px; padding: 0px; border: 0px; outline: 0px; vertical-align: baseline; background: transparent; font-family: LufthansaTextWeb-Regular, sans-serif; color: rgb(0, 102, 102); box-sizing: border-box !important;&quot; class=&quot;lit&quot;&gt;118.4081&lt;/span&gt;" style="text;whiteSpace=wrap;html=1;align=center;" parent="1" vertex="1">
          <mxGeometry x="498" y="1030" width="130" height="50" as="geometry" />
        </mxCell>
        <mxCell id="XFWaM2evA0Q7bCbQr-Yb-100" value="&lt;span style=&quot;forced-color-adjust: none; font-family: Helvetica; font-size: 11px; font-style: normal; font-variant-ligatures: normal; font-variant-caps: normal; font-weight: 400; letter-spacing: normal; orphans: 2; text-align: center; text-indent: 0px; text-transform: none; widows: 2; word-spacing: 0px; -webkit-text-stroke-width: 0px; white-space: nowrap; background-color: rgb(255, 255, 255); text-decoration-thickness: initial; text-decoration-style: initial; text-decoration-color: initial; color: rgb(51, 255, 51); float: none; display: inline !important;&quot;&gt;GET&lt;/span&gt;&lt;br style=&quot;forced-color-adjust: none; font-family: Helvetica; font-size: 11px; font-style: normal; font-variant-ligatures: normal; font-variant-caps: normal; font-weight: 400; letter-spacing: normal; orphans: 2; text-align: center; text-indent: 0px; text-transform: none; widows: 2; word-spacing: 0px; -webkit-text-stroke-width: 0px; white-space: nowrap; background-color: rgb(255, 255, 255); text-decoration-thickness: initial; text-decoration-style: initial; text-decoration-color: initial; color: rgb(51, 255, 51);&quot;&gt;&lt;span style=&quot;forced-color-adjust: none; font-family: Helvetica; font-size: 11px; font-style: normal; font-variant-ligatures: normal; font-variant-caps: normal; font-weight: 400; letter-spacing: normal; orphans: 2; text-align: center; text-indent: 0px; text-transform: none; widows: 2; word-spacing: 0px; -webkit-text-stroke-width: 0px; white-space: nowrap; background-color: rgb(255, 255, 255); text-decoration-thickness: initial; text-decoration-style: initial; text-decoration-color: initial; color: rgb(51, 255, 51); float: none; display: inline !important;&quot;&gt;&lt;span style=&quot;forced-color-adjust: none; background-color: transparent; color: rgb(0, 136, 0); font-family: LufthansaTextWeb-Regular, sans-serif; font-size: 11.9px; text-align: left;&quot;&gt;airportCode&lt;/span&gt;=&quot;LAX&quot;&lt;/span&gt;" style="edgeStyle=orthogonalEdgeStyle;rounded=0;orthogonalLoop=1;jettySize=auto;html=1;exitX=0.5;exitY=1;exitDx=0;exitDy=0;entryX=0.75;entryY=0;entryDx=0;entryDy=0;shape=flexArrow;fillColor=#d5e8d4;strokeColor=#82b366;" parent="1" source="XFWaM2evA0Q7bCbQr-Yb-88" target="XFWaM2evA0Q7bCbQr-Yb-84" edge="1">
          <mxGeometry x="-0.1402" relative="1" as="geometry">
            <mxPoint y="1" as="offset" />
          </mxGeometry>
        </mxCell>
        <mxCell id="XFWaM2evA0Q7bCbQr-Yb-88" value="&lt;span style=&quot;color: rgb(0, 0, 0); font-family: Helvetica; font-size: 12px; font-style: normal; font-variant-ligatures: normal; font-variant-caps: normal; font-weight: 400; letter-spacing: normal; orphans: 2; text-indent: 0px; text-transform: none; widows: 2; word-spacing: 0px; -webkit-text-stroke-width: 0px; white-space: nowrap; background-color: rgb(251, 251, 251); text-decoration-thickness: initial; text-decoration-style: initial; text-decoration-color: initial; float: none; display: inline !important;&quot;&gt;arrival.iata=&quot;LAX&quot;&lt;/span&gt;" style="text;whiteSpace=wrap;html=1;align=center;" parent="1" vertex="1">
          <mxGeometry x="499" y="664.5" width="130" height="25" as="geometry" />
        </mxCell>
        <mxCell id="XFWaM2evA0Q7bCbQr-Yb-89" value="&lt;span style=&quot;color: rgb(0, 0, 0); font-family: Helvetica; font-size: 12px; font-style: normal; font-variant-ligatures: normal; font-variant-caps: normal; font-weight: 400; letter-spacing: normal; orphans: 2; text-indent: 0px; text-transform: none; widows: 2; word-spacing: 0px; -webkit-text-stroke-width: 0px; white-space: nowrap; background-color: rgb(251, 251, 251); text-decoration-thickness: initial; text-decoration-style: initial; text-decoration-color: initial; float: none; display: inline !important;&quot;&gt;departure.iata=&quot;CDG&quot;&lt;/span&gt;" style="text;whiteSpace=wrap;html=1;align=center;" parent="1" vertex="1">
          <mxGeometry x="365" y="662.5" width="130" height="25" as="geometry" />
        </mxCell>
        <mxCell id="XFWaM2evA0Q7bCbQr-Yb-95" value="&lt;span style=&quot;color: rgb(51, 255, 51); font-family: Helvetica; font-size: 11px; font-style: normal; font-variant-ligatures: normal; font-variant-caps: normal; font-weight: 400; letter-spacing: normal; orphans: 2; text-align: center; text-indent: 0px; text-transform: none; widows: 2; word-spacing: 0px; -webkit-text-stroke-width: 0px; white-space: nowrap; background-color: rgb(255, 255, 255); text-decoration-thickness: initial; text-decoration-style: initial; text-decoration-color: initial; display: inline !important; float: none;&quot;&gt;GET&lt;/span&gt;&lt;br style=&quot;forced-color-adjust: none; color: rgb(51, 255, 51); font-family: Helvetica; font-size: 11px; font-style: normal; font-variant-ligatures: normal; font-variant-caps: normal; font-weight: 400; letter-spacing: normal; orphans: 2; text-align: center; text-indent: 0px; text-transform: none; widows: 2; word-spacing: 0px; -webkit-text-stroke-width: 0px; white-space: nowrap; background-color: rgb(255, 255, 255); text-decoration-thickness: initial; text-decoration-style: initial; text-decoration-color: initial;&quot;&gt;&lt;span style=&quot;color: rgb(51, 255, 51); font-family: Helvetica; font-size: 11px; font-style: normal; font-variant-ligatures: normal; font-variant-caps: normal; font-weight: 400; letter-spacing: normal; orphans: 2; text-align: center; text-indent: 0px; text-transform: none; widows: 2; word-spacing: 0px; -webkit-text-stroke-width: 0px; white-space: nowrap; background-color: rgb(255, 255, 255); text-decoration-thickness: initial; text-decoration-style: initial; text-decoration-color: initial; display: inline !important; float: none;&quot;&gt;&lt;span style=&quot;background-color: transparent; color: rgb(0, 136, 0); font-family: LufthansaTextWeb-Regular, sans-serif; font-size: 11.9px; text-align: left;&quot;&gt;airportCode&lt;/span&gt;=&quot;CDG&quot;&lt;/span&gt;" style="edgeStyle=orthogonalEdgeStyle;rounded=0;orthogonalLoop=1;jettySize=auto;html=1;entryX=0.25;entryY=0;entryDx=0;entryDy=0;fillColor=#d5e8d4;strokeColor=#82b366;shape=flexArrow;exitX=0.5;exitY=1;exitDx=0;exitDy=0;" parent="1" source="XFWaM2evA0Q7bCbQr-Yb-89" target="XFWaM2evA0Q7bCbQr-Yb-84" edge="1">
          <mxGeometry x="-0.1164" relative="1" as="geometry">
            <mxPoint as="offset" />
            <mxPoint x="660" y="705" as="sourcePoint" />
            <mxPoint x="703" y="875" as="targetPoint" />
          </mxGeometry>
        </mxCell>
        <UserObject label="forecast.forecastday.hour" link="&#xa;forecast.forecastday.hour.time&#xa;&#xa;" id="XFWaM2evA0Q7bCbQr-Yb-102">
          <mxCell style="edgeStyle=orthogonalEdgeStyle;rounded=0;orthogonalLoop=1;jettySize=auto;html=1;exitX=0.25;exitY=1;exitDx=0;exitDy=0;entryX=0.5;entryY=0;entryDx=0;entryDy=0;" parent="1" source="XFWaM2evA0Q7bCbQr-Yb-97" target="XFWaM2evA0Q7bCbQr-Yb-98" edge="1">
            <mxGeometry relative="1" as="geometry" />
          </mxCell>
        </UserObject>
        <UserObject label="&lt;span style=&quot;color: rgb(0, 0, 0); font-family: Helvetica; font-size: 11px; font-style: normal; font-variant-ligatures: normal; font-variant-caps: normal; font-weight: 400; letter-spacing: normal; orphans: 2; text-align: center; text-indent: 0px; text-transform: none; widows: 2; word-spacing: 0px; -webkit-text-stroke-width: 0px; white-space: nowrap; background-color: rgb(255, 255, 255); text-decoration-thickness: initial; text-decoration-style: initial; text-decoration-color: initial; display: inline !important; float: none;&quot;&gt;forecast.forecastday.hour&lt;/span&gt;" link="&#xa;&lt;span style=&quot;color: rgb(0, 0, 0); font-family: Helvetica; font-size: 11px; font-style: normal; font-variant-ligatures: normal; font-variant-caps: normal; font-weight: 400; letter-spacing: normal; orphans: 2; text-align: center; text-indent: 0px; text-transform: none; widows: 2; word-spacing: 0px; -webkit-text-stroke-width: 0px; white-space: nowrap; background-color: rgb(255, 255, 255); text-decoration-thickness: initial; text-decoration-style: initial; text-decoration-color: initial; display: inline !important; float: none;&quot;&gt;forecast.forecastday.hour&lt;/span&gt;&#xa;&#xa;" id="XFWaM2evA0Q7bCbQr-Yb-103">
          <mxCell style="edgeStyle=orthogonalEdgeStyle;rounded=0;orthogonalLoop=1;jettySize=auto;html=1;exitX=0.75;exitY=1;exitDx=0;exitDy=0;entryX=0.5;entryY=0;entryDx=0;entryDy=0;" parent="1" source="XFWaM2evA0Q7bCbQr-Yb-97" target="XFWaM2evA0Q7bCbQr-Yb-101" edge="1">
            <mxGeometry relative="1" as="geometry" />
          </mxCell>
        </UserObject>
        <mxCell id="XFWaM2evA0Q7bCbQr-Yb-97" value="waetherapi:history" style="rounded=0;whiteSpace=wrap;html=1;fillColor=#ffe6cc;strokeColor=#d79b00;" parent="1" vertex="1">
          <mxGeometry x="364" y="1210" width="265" height="60" as="geometry" />
        </mxCell>
        <mxCell id="XFWaM2evA0Q7bCbQr-Yb-98" value="&lt;p&gt;&quot;temp_c&quot;: &lt;font color=&quot;#006666&quot;&gt;17.0&lt;/font&gt;&lt;/p&gt;&lt;p&gt;&quot;conditionâ.&quot;text&quot;: &quot;&lt;font color=&quot;#006666&quot;&gt;Clear&lt;/font&gt;â&lt;/p&gt;&lt;p&gt;&quot;wind_kph&quot;: &lt;font color=&quot;#006666&quot;&gt;15.5&lt;/font&gt;&lt;/p&gt;&lt;p&gt;&quot;wind_dir&quot;: &quot;&lt;font color=&quot;#006666&quot;&gt;NNW&lt;/font&gt;â&lt;/p&gt;&lt;div&gt;&lt;br&gt;&lt;/div&gt;" style="text;whiteSpace=wrap;html=1;align=center;" parent="1" vertex="1">
          <mxGeometry x="353.75" y="1390" width="154.5" height="130" as="geometry" />
        </mxCell>
        <mxCell id="XFWaM2evA0Q7bCbQr-Yb-101" value="&lt;p&gt;&quot;temp_c&quot;: &lt;font color=&quot;#006666&quot;&gt;17.0&lt;/font&gt;&lt;/p&gt;&lt;p&gt;&quot;conditionâ.&quot;text&quot;: &quot;&lt;font color=&quot;#006666&quot;&gt;Clear&lt;/font&gt;â&lt;/p&gt;&lt;p&gt;&quot;wind_kph&quot;: &lt;font color=&quot;#006666&quot;&gt;15.5&lt;/font&gt;&lt;/p&gt;&lt;p&gt;&quot;wind_dir&quot;: &quot;&lt;font color=&quot;#006666&quot;&gt;NNW&lt;/font&gt;â&lt;/p&gt;&lt;div&gt;&lt;br&gt;&lt;/div&gt;" style="text;whiteSpace=wrap;html=1;align=center;" parent="1" vertex="1">
          <mxGeometry x="485.75" y="1390" width="154.5" height="130" as="geometry" />
        </mxCell>
        <mxCell id="ya2SKJEDVi4XLlaK7QYM-20" value="" style="shape=table;startSize=0;container=1;collapsible=0;childLayout=tableLayout;fontSize=16;" parent="1" vertex="1">
          <mxGeometry x="20" y="1590" width="1268" height="240" as="geometry" />
        </mxCell>
        <mxCell id="ya2SKJEDVi4XLlaK7QYM-37" style="shape=tableRow;horizontal=0;startSize=0;swimlaneHead=0;swimlaneBody=0;strokeColor=inherit;top=0;left=0;bottom=0;right=0;collapsible=0;dropTarget=0;fillColor=none;points=[[0,0.5],[1,0.5]];portConstraint=eastwest;fontSize=16;" parent="ya2SKJEDVi4XLlaK7QYM-20" vertex="1">
          <mxGeometry width="1268" height="40" as="geometry" />
        </mxCell>
        <mxCell id="ya2SKJEDVi4XLlaK7QYM-38" value="AÃ©roport Dep" style="shape=partialRectangle;html=1;whiteSpace=wrap;connectable=0;strokeColor=inherit;overflow=hidden;fillColor=none;top=0;left=0;bottom=0;right=0;pointerEvents=1;fontSize=16;" parent="ya2SKJEDVi4XLlaK7QYM-37" vertex="1">
          <mxGeometry width="181" height="40" as="geometry">
            <mxRectangle width="181" height="40" as="alternateBounds" />
          </mxGeometry>
        </mxCell>
        <mxCell id="ya2SKJEDVi4XLlaK7QYM-39" value="100km" style="shape=partialRectangle;html=1;whiteSpace=wrap;connectable=0;strokeColor=inherit;overflow=hidden;fillColor=none;top=0;left=0;bottom=0;right=0;pointerEvents=1;fontSize=16;" parent="ya2SKJEDVi4XLlaK7QYM-37" vertex="1">
          <mxGeometry x="181" width="182" height="40" as="geometry">
            <mxRectangle width="182" height="40" as="alternateBounds" />
          </mxGeometry>
        </mxCell>
        <mxCell id="ya2SKJEDVi4XLlaK7QYM-40" value="200km" style="shape=partialRectangle;html=1;whiteSpace=wrap;connectable=0;strokeColor=inherit;overflow=hidden;fillColor=none;top=0;left=0;bottom=0;right=0;pointerEvents=1;fontSize=16;" parent="ya2SKJEDVi4XLlaK7QYM-37" vertex="1">
          <mxGeometry x="363" width="181" height="40" as="geometry">
            <mxRectangle width="181" height="40" as="alternateBounds" />
          </mxGeometry>
        </mxCell>
        <mxCell id="ya2SKJEDVi4XLlaK7QYM-41" value="300km" style="shape=partialRectangle;html=1;whiteSpace=wrap;connectable=0;strokeColor=inherit;overflow=hidden;fillColor=none;top=0;left=0;bottom=0;right=0;pointerEvents=1;fontSize=16;" parent="ya2SKJEDVi4XLlaK7QYM-37" vertex="1">
          <mxGeometry x="544" width="181" height="40" as="geometry">
            <mxRectangle width="181" height="40" as="alternateBounds" />
          </mxGeometry>
        </mxCell>
        <mxCell id="ya2SKJEDVi4XLlaK7QYM-45" value="..." style="shape=partialRectangle;html=1;whiteSpace=wrap;connectable=0;strokeColor=inherit;overflow=hidden;fillColor=none;top=0;left=0;bottom=0;right=0;pointerEvents=1;fontSize=16;" parent="ya2SKJEDVi4XLlaK7QYM-37" vertex="1">
          <mxGeometry x="725" width="181" height="40" as="geometry">
            <mxRectangle width="181" height="40" as="alternateBounds" />
          </mxGeometry>
        </mxCell>
        <mxCell id="ya2SKJEDVi4XLlaK7QYM-49" value="1200km" style="shape=partialRectangle;html=1;whiteSpace=wrap;connectable=0;strokeColor=inherit;overflow=hidden;fillColor=none;top=0;left=0;bottom=0;right=0;pointerEvents=1;fontSize=16;" parent="ya2SKJEDVi4XLlaK7QYM-37" vertex="1">
          <mxGeometry x="906" width="181" height="40" as="geometry">
            <mxRectangle width="181" height="40" as="alternateBounds" />
          </mxGeometry>
        </mxCell>
        <mxCell id="ya2SKJEDVi4XLlaK7QYM-53" value="AÃ©roport Arr" style="shape=partialRectangle;html=1;whiteSpace=wrap;connectable=0;strokeColor=inherit;overflow=hidden;fillColor=none;top=0;left=0;bottom=0;right=0;pointerEvents=1;fontSize=16;" parent="ya2SKJEDVi4XLlaK7QYM-37" vertex="1">
          <mxGeometry x="1087" width="181" height="40" as="geometry">
            <mxRectangle width="181" height="40" as="alternateBounds" />
          </mxGeometry>
        </mxCell>
        <mxCell id="ya2SKJEDVi4XLlaK7QYM-21" value="" style="shape=tableRow;horizontal=0;startSize=0;swimlaneHead=0;swimlaneBody=0;strokeColor=inherit;top=0;left=0;bottom=0;right=0;collapsible=0;dropTarget=0;fillColor=none;points=[[0,0.5],[1,0.5]];portConstraint=eastwest;fontSize=16;" parent="ya2SKJEDVi4XLlaK7QYM-20" vertex="1">
          <mxGeometry y="40" width="1268" height="40" as="geometry" />
        </mxCell>
        <mxCell id="ya2SKJEDVi4XLlaK7QYM-22" value="&lt;p style=&quot;font-size: 11px;&quot;&gt;2019-02-31 04:15&lt;/p&gt;" style="shape=partialRectangle;html=1;whiteSpace=wrap;connectable=0;strokeColor=inherit;overflow=hidden;fillColor=none;top=0;left=0;bottom=0;right=0;pointerEvents=1;fontSize=16;" parent="ya2SKJEDVi4XLlaK7QYM-21" vertex="1">
          <mxGeometry width="181" height="40" as="geometry">
            <mxRectangle width="181" height="40" as="alternateBounds" />
          </mxGeometry>
        </mxCell>
        <mxCell id="ya2SKJEDVi4XLlaK7QYM-23" value="&lt;span style=&quot;color: rgb(0, 0, 0); font-family: Helvetica; font-size: 11px; font-style: normal; font-variant-ligatures: normal; font-variant-caps: normal; font-weight: 400; letter-spacing: normal; orphans: 2; text-align: center; text-indent: 0px; text-transform: none; widows: 2; word-spacing: 0px; -webkit-text-stroke-width: 0px; white-space: normal; background-color: rgb(251, 251, 251); text-decoration-thickness: initial; text-decoration-style: initial; text-decoration-color: initial; display: inline !important; float: none;&quot;&gt;2019-02-31 04:21&lt;/span&gt;" style="shape=partialRectangle;html=1;whiteSpace=wrap;connectable=0;strokeColor=inherit;overflow=hidden;fillColor=none;top=0;left=0;bottom=0;right=0;pointerEvents=1;fontSize=16;" parent="ya2SKJEDVi4XLlaK7QYM-21" vertex="1">
          <mxGeometry x="181" width="182" height="40" as="geometry">
            <mxRectangle width="182" height="40" as="alternateBounds" />
          </mxGeometry>
        </mxCell>
        <mxCell id="ya2SKJEDVi4XLlaK7QYM-24" value="&lt;span style=&quot;font-size: 11px;&quot;&gt;2019-02-31 04:27&lt;/span&gt;" style="shape=partialRectangle;html=1;whiteSpace=wrap;connectable=0;strokeColor=inherit;overflow=hidden;fillColor=none;top=0;left=0;bottom=0;right=0;pointerEvents=1;fontSize=16;" parent="ya2SKJEDVi4XLlaK7QYM-21" vertex="1">
          <mxGeometry x="363" width="181" height="40" as="geometry">
            <mxRectangle width="181" height="40" as="alternateBounds" />
          </mxGeometry>
        </mxCell>
        <mxCell id="ya2SKJEDVi4XLlaK7QYM-42" value="&lt;span style=&quot;font-size: 11px;&quot;&gt;2019-02-31 04:33&lt;/span&gt;" style="shape=partialRectangle;html=1;whiteSpace=wrap;connectable=0;strokeColor=inherit;overflow=hidden;fillColor=none;top=0;left=0;bottom=0;right=0;pointerEvents=1;fontSize=16;" parent="ya2SKJEDVi4XLlaK7QYM-21" vertex="1">
          <mxGeometry x="544" width="181" height="40" as="geometry">
            <mxRectangle width="181" height="40" as="alternateBounds" />
          </mxGeometry>
        </mxCell>
        <mxCell id="ya2SKJEDVi4XLlaK7QYM-46" value="..." style="shape=partialRectangle;html=1;whiteSpace=wrap;connectable=0;strokeColor=inherit;overflow=hidden;fillColor=none;top=0;left=0;bottom=0;right=0;pointerEvents=1;fontSize=16;" parent="ya2SKJEDVi4XLlaK7QYM-21" vertex="1">
          <mxGeometry x="725" width="181" height="40" as="geometry">
            <mxRectangle width="181" height="40" as="alternateBounds" />
          </mxGeometry>
        </mxCell>
        <mxCell id="ya2SKJEDVi4XLlaK7QYM-50" value="&lt;span style=&quot;color: rgb(0, 0, 0); font-family: Helvetica; font-size: 11px; font-style: normal; font-variant-ligatures: normal; font-variant-caps: normal; font-weight: 400; letter-spacing: normal; orphans: 2; text-align: center; text-indent: 0px; text-transform: none; widows: 2; word-spacing: 0px; -webkit-text-stroke-width: 0px; white-space: normal; background-color: rgb(251, 251, 251); text-decoration-thickness: initial; text-decoration-style: initial; text-decoration-color: initial; display: inline !important; float: none;&quot;&gt;2019-02-31 11:17&lt;/span&gt;" style="shape=partialRectangle;html=1;whiteSpace=wrap;connectable=0;strokeColor=inherit;overflow=hidden;fillColor=none;top=0;left=0;bottom=0;right=0;pointerEvents=1;fontSize=16;" parent="ya2SKJEDVi4XLlaK7QYM-21" vertex="1">
          <mxGeometry x="906" width="181" height="40" as="geometry">
            <mxRectangle width="181" height="40" as="alternateBounds" />
          </mxGeometry>
        </mxCell>
        <mxCell id="ya2SKJEDVi4XLlaK7QYM-54" value="&lt;p style=&quot;font-size: 11px; background-color: rgb(255, 255, 255);&quot;&gt;2019-02-31 11:23&lt;/p&gt;" style="shape=partialRectangle;html=1;whiteSpace=wrap;connectable=0;strokeColor=inherit;overflow=hidden;fillColor=none;top=0;left=0;bottom=0;right=0;pointerEvents=1;fontSize=16;" parent="ya2SKJEDVi4XLlaK7QYM-21" vertex="1">
          <mxGeometry x="1087" width="181" height="40" as="geometry">
            <mxRectangle width="181" height="40" as="alternateBounds" />
          </mxGeometry>
        </mxCell>
        <mxCell id="ya2SKJEDVi4XLlaK7QYM-25" value="" style="shape=tableRow;horizontal=0;startSize=0;swimlaneHead=0;swimlaneBody=0;strokeColor=inherit;top=0;left=0;bottom=0;right=0;collapsible=0;dropTarget=0;fillColor=none;points=[[0,0.5],[1,0.5]];portConstraint=eastwest;fontSize=16;" parent="ya2SKJEDVi4XLlaK7QYM-20" vertex="1">
          <mxGeometry y="80" width="1268" height="40" as="geometry" />
        </mxCell>
        <mxCell id="ya2SKJEDVi4XLlaK7QYM-26" value="&lt;span style=&quot;font-size: 12px;&quot;&gt;&quot;temp_c&quot;:&amp;nbsp;&lt;/span&gt;&lt;font style=&quot;font-size: 12px;&quot; color=&quot;#006666&quot;&gt;17.0&lt;/font&gt;" style="shape=partialRectangle;html=1;whiteSpace=wrap;connectable=0;strokeColor=inherit;overflow=hidden;fillColor=none;top=0;left=0;bottom=0;right=0;pointerEvents=1;fontSize=16;" parent="ya2SKJEDVi4XLlaK7QYM-25" vertex="1">
          <mxGeometry width="181" height="40" as="geometry">
            <mxRectangle width="181" height="40" as="alternateBounds" />
          </mxGeometry>
        </mxCell>
        <mxCell id="ya2SKJEDVi4XLlaK7QYM-27" value="&lt;span style=&quot;font-size: 12px;&quot;&gt;&quot;temp_c&quot;:&amp;nbsp;&lt;/span&gt;&lt;font style=&quot;font-size: 12px;&quot; color=&quot;#006666&quot;&gt;17.0&lt;/font&gt;" style="shape=partialRectangle;html=1;whiteSpace=wrap;connectable=0;strokeColor=inherit;overflow=hidden;fillColor=none;top=0;left=0;bottom=0;right=0;pointerEvents=1;fontSize=16;" parent="ya2SKJEDVi4XLlaK7QYM-25" vertex="1">
          <mxGeometry x="181" width="182" height="40" as="geometry">
            <mxRectangle width="182" height="40" as="alternateBounds" />
          </mxGeometry>
        </mxCell>
        <mxCell id="ya2SKJEDVi4XLlaK7QYM-28" value="&lt;span style=&quot;font-size: 12px;&quot;&gt;&quot;temp_c&quot;:&amp;nbsp;&lt;/span&gt;&lt;font style=&quot;font-size: 12px;&quot; color=&quot;#006666&quot;&gt;17.0&lt;/font&gt;" style="shape=partialRectangle;html=1;whiteSpace=wrap;connectable=0;strokeColor=inherit;overflow=hidden;fillColor=none;top=0;left=0;bottom=0;right=0;pointerEvents=1;fontSize=16;" parent="ya2SKJEDVi4XLlaK7QYM-25" vertex="1">
          <mxGeometry x="363" width="181" height="40" as="geometry">
            <mxRectangle width="181" height="40" as="alternateBounds" />
          </mxGeometry>
        </mxCell>
        <mxCell id="ya2SKJEDVi4XLlaK7QYM-43" value="&lt;span style=&quot;font-size: 12px;&quot;&gt;&quot;temp_c&quot;:&amp;nbsp;&lt;/span&gt;&lt;font style=&quot;font-size: 12px;&quot; color=&quot;#006666&quot;&gt;17.0&lt;/font&gt;" style="shape=partialRectangle;html=1;whiteSpace=wrap;connectable=0;strokeColor=inherit;overflow=hidden;fillColor=none;top=0;left=0;bottom=0;right=0;pointerEvents=1;fontSize=16;" parent="ya2SKJEDVi4XLlaK7QYM-25" vertex="1">
          <mxGeometry x="544" width="181" height="40" as="geometry">
            <mxRectangle width="181" height="40" as="alternateBounds" />
          </mxGeometry>
        </mxCell>
        <mxCell id="ya2SKJEDVi4XLlaK7QYM-47" value="..." style="shape=partialRectangle;html=1;whiteSpace=wrap;connectable=0;strokeColor=inherit;overflow=hidden;fillColor=none;top=0;left=0;bottom=0;right=0;pointerEvents=1;fontSize=16;" parent="ya2SKJEDVi4XLlaK7QYM-25" vertex="1">
          <mxGeometry x="725" width="181" height="40" as="geometry">
            <mxRectangle width="181" height="40" as="alternateBounds" />
          </mxGeometry>
        </mxCell>
        <mxCell id="ya2SKJEDVi4XLlaK7QYM-51" value="&lt;span style=&quot;font-size: 12px;&quot;&gt;&quot;temp_c&quot;:&amp;nbsp;&lt;/span&gt;&lt;font style=&quot;font-size: 12px;&quot; color=&quot;#006666&quot;&gt;17.0&lt;/font&gt;" style="shape=partialRectangle;html=1;whiteSpace=wrap;connectable=0;strokeColor=inherit;overflow=hidden;fillColor=none;top=0;left=0;bottom=0;right=0;pointerEvents=1;fontSize=16;" parent="ya2SKJEDVi4XLlaK7QYM-25" vertex="1">
          <mxGeometry x="906" width="181" height="40" as="geometry">
            <mxRectangle width="181" height="40" as="alternateBounds" />
          </mxGeometry>
        </mxCell>
        <mxCell id="ya2SKJEDVi4XLlaK7QYM-55" value="&lt;span style=&quot;font-size: 12px;&quot;&gt;&quot;temp_c&quot;:&amp;nbsp;&lt;/span&gt;&lt;font style=&quot;font-size: 12px;&quot; color=&quot;#006666&quot;&gt;17.0&lt;/font&gt;" style="shape=partialRectangle;html=1;whiteSpace=wrap;connectable=0;strokeColor=inherit;overflow=hidden;fillColor=none;top=0;left=0;bottom=0;right=0;pointerEvents=1;fontSize=16;" parent="ya2SKJEDVi4XLlaK7QYM-25" vertex="1">
          <mxGeometry x="1087" width="181" height="40" as="geometry">
            <mxRectangle width="181" height="40" as="alternateBounds" />
          </mxGeometry>
        </mxCell>
        <mxCell id="ya2SKJEDVi4XLlaK7QYM-29" value="" style="shape=tableRow;horizontal=0;startSize=0;swimlaneHead=0;swimlaneBody=0;strokeColor=inherit;top=0;left=0;bottom=0;right=0;collapsible=0;dropTarget=0;fillColor=none;points=[[0,0.5],[1,0.5]];portConstraint=eastwest;fontSize=16;" parent="ya2SKJEDVi4XLlaK7QYM-20" vertex="1">
          <mxGeometry y="120" width="1268" height="40" as="geometry" />
        </mxCell>
        <mxCell id="ya2SKJEDVi4XLlaK7QYM-30" value="&lt;span style=&quot;color: rgb(0, 0, 0); font-family: Helvetica; font-size: 12px; font-style: normal; font-variant-ligatures: normal; font-variant-caps: normal; font-weight: 400; letter-spacing: normal; orphans: 2; text-align: center; text-indent: 0px; text-transform: none; widows: 2; word-spacing: 0px; -webkit-text-stroke-width: 0px; white-space: normal; background-color: rgb(251, 251, 251); text-decoration-thickness: initial; text-decoration-style: initial; text-decoration-color: initial; display: inline !important; float: none;&quot;&gt;&quot;conditionâ.&quot;text&quot;: &quot;&lt;/span&gt;&lt;font style=&quot;forced-color-adjust: none; font-family: Helvetica; font-size: 12px; font-style: normal; font-variant-ligatures: normal; font-variant-caps: normal; font-weight: 400; letter-spacing: normal; orphans: 2; text-align: center; text-indent: 0px; text-transform: none; widows: 2; word-spacing: 0px; -webkit-text-stroke-width: 0px; white-space: normal; background-color: rgb(251, 251, 251); text-decoration-thickness: initial; text-decoration-style: initial; text-decoration-color: initial;&quot; color=&quot;#006666&quot;&gt;Clear&lt;/font&gt;&lt;span style=&quot;color: rgb(0, 0, 0); font-family: Helvetica; font-size: 12px; font-style: normal; font-variant-ligatures: normal; font-variant-caps: normal; font-weight: 400; letter-spacing: normal; orphans: 2; text-align: center; text-indent: 0px; text-transform: none; widows: 2; word-spacing: 0px; -webkit-text-stroke-width: 0px; white-space: normal; background-color: rgb(251, 251, 251); text-decoration-thickness: initial; text-decoration-style: initial; text-decoration-color: initial; display: inline !important; float: none;&quot;&gt;â&lt;/span&gt;" style="shape=partialRectangle;html=1;whiteSpace=wrap;connectable=0;strokeColor=inherit;overflow=hidden;fillColor=none;top=0;left=0;bottom=0;right=0;pointerEvents=1;fontSize=16;" parent="ya2SKJEDVi4XLlaK7QYM-29" vertex="1">
          <mxGeometry width="181" height="40" as="geometry">
            <mxRectangle width="181" height="40" as="alternateBounds" />
          </mxGeometry>
        </mxCell>
        <mxCell id="ya2SKJEDVi4XLlaK7QYM-31" value="&lt;span style=&quot;font-size: 12px;&quot;&gt;&quot;conditionâ.&quot;text&quot;: &quot;&lt;/span&gt;&lt;font style=&quot;font-size: 12px;&quot; color=&quot;#006666&quot;&gt;Clear&lt;/font&gt;&lt;span style=&quot;font-size: 12px;&quot;&gt;â&lt;/span&gt;" style="shape=partialRectangle;html=1;whiteSpace=wrap;connectable=0;strokeColor=inherit;overflow=hidden;fillColor=none;top=0;left=0;bottom=0;right=0;pointerEvents=1;fontSize=16;" parent="ya2SKJEDVi4XLlaK7QYM-29" vertex="1">
          <mxGeometry x="181" width="182" height="40" as="geometry">
            <mxRectangle width="182" height="40" as="alternateBounds" />
          </mxGeometry>
        </mxCell>
        <mxCell id="ya2SKJEDVi4XLlaK7QYM-32" value="&lt;span style=&quot;font-size: 12px;&quot;&gt;&quot;conditionâ.&quot;text&quot;: &quot;&lt;/span&gt;&lt;font style=&quot;font-size: 12px;&quot; color=&quot;#006666&quot;&gt;Clear&lt;/font&gt;&lt;span style=&quot;font-size: 12px;&quot;&gt;â&lt;/span&gt;" style="shape=partialRectangle;html=1;whiteSpace=wrap;connectable=0;strokeColor=inherit;overflow=hidden;fillColor=none;top=0;left=0;bottom=0;right=0;pointerEvents=1;fontSize=16;" parent="ya2SKJEDVi4XLlaK7QYM-29" vertex="1">
          <mxGeometry x="363" width="181" height="40" as="geometry">
            <mxRectangle width="181" height="40" as="alternateBounds" />
          </mxGeometry>
        </mxCell>
        <mxCell id="ya2SKJEDVi4XLlaK7QYM-44" value="&lt;span style=&quot;font-size: 12px;&quot;&gt;&quot;conditionâ.&quot;text&quot;: &quot;&lt;/span&gt;&lt;font style=&quot;font-size: 12px;&quot; color=&quot;#006666&quot;&gt;Clear&lt;/font&gt;&lt;span style=&quot;font-size: 12px;&quot;&gt;â&lt;/span&gt;" style="shape=partialRectangle;html=1;whiteSpace=wrap;connectable=0;strokeColor=inherit;overflow=hidden;fillColor=none;top=0;left=0;bottom=0;right=0;pointerEvents=1;fontSize=16;" parent="ya2SKJEDVi4XLlaK7QYM-29" vertex="1">
          <mxGeometry x="544" width="181" height="40" as="geometry">
            <mxRectangle width="181" height="40" as="alternateBounds" />
          </mxGeometry>
        </mxCell>
        <mxCell id="ya2SKJEDVi4XLlaK7QYM-48" value="..." style="shape=partialRectangle;html=1;whiteSpace=wrap;connectable=0;strokeColor=inherit;overflow=hidden;fillColor=none;top=0;left=0;bottom=0;right=0;pointerEvents=1;fontSize=16;" parent="ya2SKJEDVi4XLlaK7QYM-29" vertex="1">
          <mxGeometry x="725" width="181" height="40" as="geometry">
            <mxRectangle width="181" height="40" as="alternateBounds" />
          </mxGeometry>
        </mxCell>
        <mxCell id="ya2SKJEDVi4XLlaK7QYM-52" value="&lt;span style=&quot;font-size: 12px;&quot;&gt;&quot;conditionâ.&quot;text&quot;: &quot;&lt;/span&gt;&lt;font style=&quot;font-size: 12px;&quot; color=&quot;#006666&quot;&gt;Clear&lt;/font&gt;&lt;span style=&quot;font-size: 12px;&quot;&gt;â&lt;/span&gt;" style="shape=partialRectangle;html=1;whiteSpace=wrap;connectable=0;strokeColor=inherit;overflow=hidden;fillColor=none;top=0;left=0;bottom=0;right=0;pointerEvents=1;fontSize=16;" parent="ya2SKJEDVi4XLlaK7QYM-29" vertex="1">
          <mxGeometry x="906" width="181" height="40" as="geometry">
            <mxRectangle width="181" height="40" as="alternateBounds" />
          </mxGeometry>
        </mxCell>
        <mxCell id="ya2SKJEDVi4XLlaK7QYM-56" value="&lt;span style=&quot;font-size: 12px;&quot;&gt;&quot;conditionâ.&quot;text&quot;: &quot;&lt;/span&gt;&lt;font style=&quot;font-size: 12px;&quot; color=&quot;#006666&quot;&gt;Clear&lt;/font&gt;&lt;span style=&quot;font-size: 12px;&quot;&gt;â&lt;/span&gt;" style="shape=partialRectangle;html=1;whiteSpace=wrap;connectable=0;strokeColor=inherit;overflow=hidden;fillColor=none;top=0;left=0;bottom=0;right=0;pointerEvents=1;fontSize=16;" parent="ya2SKJEDVi4XLlaK7QYM-29" vertex="1">
          <mxGeometry x="1087" width="181" height="40" as="geometry">
            <mxRectangle width="181" height="40" as="alternateBounds" />
          </mxGeometry>
        </mxCell>
        <mxCell id="ya2SKJEDVi4XLlaK7QYM-57" style="shape=tableRow;horizontal=0;startSize=0;swimlaneHead=0;swimlaneBody=0;strokeColor=inherit;top=0;left=0;bottom=0;right=0;collapsible=0;dropTarget=0;fillColor=none;points=[[0,0.5],[1,0.5]];portConstraint=eastwest;fontSize=16;" parent="ya2SKJEDVi4XLlaK7QYM-20" vertex="1">
          <mxGeometry y="160" width="1268" height="40" as="geometry" />
        </mxCell>
        <mxCell id="ya2SKJEDVi4XLlaK7QYM-58" value="&lt;span style=&quot;font-size: 12px;&quot;&gt;&quot;wind_kph&quot;:&amp;nbsp;&lt;/span&gt;&lt;font style=&quot;font-size: 12px;&quot; color=&quot;#006666&quot;&gt;15.5&lt;/font&gt;" style="shape=partialRectangle;html=1;whiteSpace=wrap;connectable=0;strokeColor=inherit;overflow=hidden;fillColor=none;top=0;left=0;bottom=0;right=0;pointerEvents=1;fontSize=16;" parent="ya2SKJEDVi4XLlaK7QYM-57" vertex="1">
          <mxGeometry width="181" height="40" as="geometry">
            <mxRectangle width="181" height="40" as="alternateBounds" />
          </mxGeometry>
        </mxCell>
        <mxCell id="ya2SKJEDVi4XLlaK7QYM-59" value="&lt;span style=&quot;font-size: 12px;&quot;&gt;&quot;wind_kph&quot;:&amp;nbsp;&lt;/span&gt;&lt;font style=&quot;font-size: 12px;&quot; color=&quot;#006666&quot;&gt;15.5&lt;/font&gt;" style="shape=partialRectangle;html=1;whiteSpace=wrap;connectable=0;strokeColor=inherit;overflow=hidden;fillColor=none;top=0;left=0;bottom=0;right=0;pointerEvents=1;fontSize=16;" parent="ya2SKJEDVi4XLlaK7QYM-57" vertex="1">
          <mxGeometry x="181" width="182" height="40" as="geometry">
            <mxRectangle width="182" height="40" as="alternateBounds" />
          </mxGeometry>
        </mxCell>
        <mxCell id="ya2SKJEDVi4XLlaK7QYM-60" value="&lt;span style=&quot;font-size: 12px;&quot;&gt;&quot;wind_kph&quot;:&amp;nbsp;&lt;/span&gt;&lt;font style=&quot;font-size: 12px;&quot; color=&quot;#006666&quot;&gt;15.5&lt;/font&gt;" style="shape=partialRectangle;html=1;whiteSpace=wrap;connectable=0;strokeColor=inherit;overflow=hidden;fillColor=none;top=0;left=0;bottom=0;right=0;pointerEvents=1;fontSize=16;" parent="ya2SKJEDVi4XLlaK7QYM-57" vertex="1">
          <mxGeometry x="363" width="181" height="40" as="geometry">
            <mxRectangle width="181" height="40" as="alternateBounds" />
          </mxGeometry>
        </mxCell>
        <mxCell id="ya2SKJEDVi4XLlaK7QYM-61" value="&lt;span style=&quot;font-size: 12px;&quot;&gt;&quot;wind_kph&quot;:&amp;nbsp;&lt;/span&gt;&lt;font style=&quot;font-size: 12px;&quot; color=&quot;#006666&quot;&gt;15.5&lt;/font&gt;" style="shape=partialRectangle;html=1;whiteSpace=wrap;connectable=0;strokeColor=inherit;overflow=hidden;fillColor=none;top=0;left=0;bottom=0;right=0;pointerEvents=1;fontSize=16;" parent="ya2SKJEDVi4XLlaK7QYM-57" vertex="1">
          <mxGeometry x="544" width="181" height="40" as="geometry">
            <mxRectangle width="181" height="40" as="alternateBounds" />
          </mxGeometry>
        </mxCell>
        <mxCell id="ya2SKJEDVi4XLlaK7QYM-62" value="..." style="shape=partialRectangle;html=1;whiteSpace=wrap;connectable=0;strokeColor=inherit;overflow=hidden;fillColor=none;top=0;left=0;bottom=0;right=0;pointerEvents=1;fontSize=16;" parent="ya2SKJEDVi4XLlaK7QYM-57" vertex="1">
          <mxGeometry x="725" width="181" height="40" as="geometry">
            <mxRectangle width="181" height="40" as="alternateBounds" />
          </mxGeometry>
        </mxCell>
        <mxCell id="ya2SKJEDVi4XLlaK7QYM-63" value="&lt;span style=&quot;font-size: 12px;&quot;&gt;&quot;wind_kph&quot;:&amp;nbsp;&lt;/span&gt;&lt;font style=&quot;font-size: 12px;&quot; color=&quot;#006666&quot;&gt;15.5&lt;/font&gt;" style="shape=partialRectangle;html=1;whiteSpace=wrap;connectable=0;strokeColor=inherit;overflow=hidden;fillColor=none;top=0;left=0;bottom=0;right=0;pointerEvents=1;fontSize=16;" parent="ya2SKJEDVi4XLlaK7QYM-57" vertex="1">
          <mxGeometry x="906" width="181" height="40" as="geometry">
            <mxRectangle width="181" height="40" as="alternateBounds" />
          </mxGeometry>
        </mxCell>
        <mxCell id="ya2SKJEDVi4XLlaK7QYM-64" value="&lt;span style=&quot;font-size: 12px;&quot;&gt;&quot;wind_kph&quot;:&amp;nbsp;&lt;/span&gt;&lt;font style=&quot;font-size: 12px;&quot; color=&quot;#006666&quot;&gt;15.5&lt;/font&gt;" style="shape=partialRectangle;html=1;whiteSpace=wrap;connectable=0;strokeColor=inherit;overflow=hidden;fillColor=none;top=0;left=0;bottom=0;right=0;pointerEvents=1;fontSize=16;" parent="ya2SKJEDVi4XLlaK7QYM-57" vertex="1">
          <mxGeometry x="1087" width="181" height="40" as="geometry">
            <mxRectangle width="181" height="40" as="alternateBounds" />
          </mxGeometry>
        </mxCell>
        <mxCell id="ya2SKJEDVi4XLlaK7QYM-65" style="shape=tableRow;horizontal=0;startSize=0;swimlaneHead=0;swimlaneBody=0;strokeColor=inherit;top=0;left=0;bottom=0;right=0;collapsible=0;dropTarget=0;fillColor=none;points=[[0,0.5],[1,0.5]];portConstraint=eastwest;fontSize=16;" parent="ya2SKJEDVi4XLlaK7QYM-20" vertex="1">
          <mxGeometry y="200" width="1268" height="40" as="geometry" />
        </mxCell>
        <mxCell id="ya2SKJEDVi4XLlaK7QYM-66" value="&lt;span style=&quot;font-size: 12px;&quot;&gt;&quot;wind_dir&quot;: &quot;&lt;/span&gt;&lt;font style=&quot;font-size: 12px;&quot; color=&quot;#006666&quot;&gt;NNW&lt;/font&gt;&lt;span style=&quot;font-size: 12px;&quot;&gt;â&lt;/span&gt;" style="shape=partialRectangle;html=1;whiteSpace=wrap;connectable=0;strokeColor=inherit;overflow=hidden;fillColor=none;top=0;left=0;bottom=0;right=0;pointerEvents=1;fontSize=16;" parent="ya2SKJEDVi4XLlaK7QYM-65" vertex="1">
          <mxGeometry width="181" height="40" as="geometry">
            <mxRectangle width="181" height="40" as="alternateBounds" />
          </mxGeometry>
        </mxCell>
        <mxCell id="ya2SKJEDVi4XLlaK7QYM-67" value="&lt;span style=&quot;font-size: 12px;&quot;&gt;&quot;wind_dir&quot;: &quot;&lt;/span&gt;&lt;font style=&quot;font-size: 12px;&quot; color=&quot;#006666&quot;&gt;NNW&lt;/font&gt;&lt;span style=&quot;font-size: 12px;&quot;&gt;â&lt;/span&gt;" style="shape=partialRectangle;html=1;whiteSpace=wrap;connectable=0;strokeColor=inherit;overflow=hidden;fillColor=none;top=0;left=0;bottom=0;right=0;pointerEvents=1;fontSize=16;" parent="ya2SKJEDVi4XLlaK7QYM-65" vertex="1">
          <mxGeometry x="181" width="182" height="40" as="geometry">
            <mxRectangle width="182" height="40" as="alternateBounds" />
          </mxGeometry>
        </mxCell>
        <mxCell id="ya2SKJEDVi4XLlaK7QYM-68" value="&lt;span style=&quot;font-size: 12px;&quot;&gt;&quot;wind_dir&quot;: &quot;&lt;/span&gt;&lt;font style=&quot;font-size: 12px;&quot; color=&quot;#006666&quot;&gt;NNW&lt;/font&gt;&lt;span style=&quot;font-size: 12px;&quot;&gt;â&lt;/span&gt;" style="shape=partialRectangle;html=1;whiteSpace=wrap;connectable=0;strokeColor=inherit;overflow=hidden;fillColor=none;top=0;left=0;bottom=0;right=0;pointerEvents=1;fontSize=16;" parent="ya2SKJEDVi4XLlaK7QYM-65" vertex="1">
          <mxGeometry x="363" width="181" height="40" as="geometry">
            <mxRectangle width="181" height="40" as="alternateBounds" />
          </mxGeometry>
        </mxCell>
        <mxCell id="ya2SKJEDVi4XLlaK7QYM-69" value="&lt;span style=&quot;font-size: 12px;&quot;&gt;&quot;wind_dir&quot;: &quot;&lt;/span&gt;&lt;font style=&quot;font-size: 12px;&quot; color=&quot;#006666&quot;&gt;NNW&lt;/font&gt;&lt;span style=&quot;font-size: 12px;&quot;&gt;â&lt;/span&gt;" style="shape=partialRectangle;html=1;whiteSpace=wrap;connectable=0;strokeColor=inherit;overflow=hidden;fillColor=none;top=0;left=0;bottom=0;right=0;pointerEvents=1;fontSize=16;" parent="ya2SKJEDVi4XLlaK7QYM-65" vertex="1">
          <mxGeometry x="544" width="181" height="40" as="geometry">
            <mxRectangle width="181" height="40" as="alternateBounds" />
          </mxGeometry>
        </mxCell>
        <mxCell id="ya2SKJEDVi4XLlaK7QYM-70" value="..." style="shape=partialRectangle;html=1;whiteSpace=wrap;connectable=0;strokeColor=inherit;overflow=hidden;fillColor=none;top=0;left=0;bottom=0;right=0;pointerEvents=1;fontSize=16;" parent="ya2SKJEDVi4XLlaK7QYM-65" vertex="1">
          <mxGeometry x="725" width="181" height="40" as="geometry">
            <mxRectangle width="181" height="40" as="alternateBounds" />
          </mxGeometry>
        </mxCell>
        <mxCell id="ya2SKJEDVi4XLlaK7QYM-71" value="&lt;span style=&quot;font-size: 12px;&quot;&gt;&quot;wind_dir&quot;: &quot;&lt;/span&gt;&lt;font style=&quot;font-size: 12px;&quot; color=&quot;#006666&quot;&gt;NNW&lt;/font&gt;&lt;span style=&quot;font-size: 12px;&quot;&gt;â&lt;/span&gt;" style="shape=partialRectangle;html=1;whiteSpace=wrap;connectable=0;strokeColor=inherit;overflow=hidden;fillColor=none;top=0;left=0;bottom=0;right=0;pointerEvents=1;fontSize=16;" parent="ya2SKJEDVi4XLlaK7QYM-65" vertex="1">
          <mxGeometry x="906" width="181" height="40" as="geometry">
            <mxRectangle width="181" height="40" as="alternateBounds" />
          </mxGeometry>
        </mxCell>
        <mxCell id="ya2SKJEDVi4XLlaK7QYM-72" value="&lt;span style=&quot;font-size: 12px;&quot;&gt;&quot;wind_dir&quot;: &quot;&lt;/span&gt;&lt;font style=&quot;font-size: 12px;&quot; color=&quot;#006666&quot;&gt;NNW&lt;/font&gt;&lt;span style=&quot;font-size: 12px;&quot;&gt;â&lt;/span&gt;" style="shape=partialRectangle;html=1;whiteSpace=wrap;connectable=0;strokeColor=inherit;overflow=hidden;fillColor=none;top=0;left=0;bottom=0;right=0;pointerEvents=1;fontSize=16;" parent="ya2SKJEDVi4XLlaK7QYM-65" vertex="1">
          <mxGeometry x="1087" width="181" height="40" as="geometry">
            <mxRectangle width="181" height="40" as="alternateBounds" />
          </mxGeometry>
        </mxCell>
        <mxCell id="JZROtMAfgJJSasp0t0-5-22" value="&lt;pre&gt;data&lt;/pre&gt;" style="edgeStyle=orthogonalEdgeStyle;rounded=0;orthogonalLoop=1;jettySize=auto;html=1;entryX=0.5;entryY=0;entryDx=0;entryDy=0;exitX=1;exitY=0.5;exitDx=0;exitDy=0;" parent="1" source="XFWaM2evA0Q7bCbQr-Yb-9" target="JZROtMAfgJJSasp0t0-5-39" edge="1">
          <mxGeometry x="0.7219" relative="1" as="geometry">
            <mxPoint x="-363.5" y="40" as="sourcePoint" />
            <mxPoint x="911.5" y="425" as="targetPoint" />
            <mxPoint y="1" as="offset" />
          </mxGeometry>
        </mxCell>
        <mxCell id="JZROtMAfgJJSasp0t0-5-23" value="Nombre d&#39;evÃ©nements climatiques sur le trajet :" style="shape=table;startSize=30;container=1;collapsible=0;childLayout=tableLayout;strokeColor=default;fontSize=16;" parent="1" vertex="1">
          <mxGeometry x="1350" y="1590" width="410" height="240" as="geometry" />
        </mxCell>
        <mxCell id="JZROtMAfgJJSasp0t0-5-24" value="" style="shape=tableRow;horizontal=0;startSize=0;swimlaneHead=0;swimlaneBody=0;strokeColor=inherit;top=0;left=0;bottom=0;right=0;collapsible=0;dropTarget=0;fillColor=none;points=[[0,0.5],[1,0.5]];portConstraint=eastwest;fontSize=16;" parent="JZROtMAfgJJSasp0t0-5-23" vertex="1">
          <mxGeometry y="30" width="410" height="53" as="geometry" />
        </mxCell>
        <mxCell id="JZROtMAfgJJSasp0t0-5-25" value="&lt;font style=&quot;font-size: 17px;&quot;&gt;&quot;conditionâ.&quot;text&quot;: &quot;&lt;font style=&quot;font-size: 17px;&quot; color=&quot;#006666&quot;&gt;Clear&lt;/font&gt;â&lt;br&gt;&quot;conditionâ.&quot;code&quot;: 1000&lt;/font&gt;&lt;span style=&quot;font-size: 12px;&quot;&gt;&lt;br&gt;&lt;/span&gt;" style="shape=partialRectangle;html=1;whiteSpace=wrap;connectable=0;strokeColor=inherit;overflow=hidden;fillColor=none;top=0;left=0;bottom=0;right=0;pointerEvents=1;fontSize=16;" parent="JZROtMAfgJJSasp0t0-5-24" vertex="1">
          <mxGeometry width="290" height="53" as="geometry">
            <mxRectangle width="290" height="53" as="alternateBounds" />
          </mxGeometry>
        </mxCell>
        <mxCell id="JZROtMAfgJJSasp0t0-5-26" value="&lt;font style=&quot;font-size: 17px;&quot;&gt;4&lt;/font&gt;" style="shape=partialRectangle;html=1;whiteSpace=wrap;connectable=0;strokeColor=inherit;overflow=hidden;fillColor=none;top=0;left=0;bottom=0;right=0;pointerEvents=1;fontSize=16;" parent="JZROtMAfgJJSasp0t0-5-24" vertex="1">
          <mxGeometry x="290" width="120" height="53" as="geometry">
            <mxRectangle width="120" height="53" as="alternateBounds" />
          </mxGeometry>
        </mxCell>
        <mxCell id="JZROtMAfgJJSasp0t0-5-27" value="" style="shape=tableRow;horizontal=0;startSize=0;swimlaneHead=0;swimlaneBody=0;strokeColor=inherit;top=0;left=0;bottom=0;right=0;collapsible=0;dropTarget=0;fillColor=none;points=[[0,0.5],[1,0.5]];portConstraint=eastwest;fontSize=16;" parent="JZROtMAfgJJSasp0t0-5-23" vertex="1">
          <mxGeometry y="83" width="410" height="52" as="geometry" />
        </mxCell>
        <mxCell id="JZROtMAfgJJSasp0t0-5-28" value="&lt;font style=&quot;font-size: 17px;&quot;&gt;&quot;conditionâ.&quot;text&quot;: &quot;&lt;font style=&quot;font-size: 17px;&quot; color=&quot;#006666&quot;&gt;Cloudy&lt;/font&gt;â&lt;br&gt;&quot;conditionâ.&quot;code&quot;: 119&lt;/font&gt;" style="shape=partialRectangle;html=1;whiteSpace=wrap;connectable=0;strokeColor=inherit;overflow=hidden;fillColor=none;top=0;left=0;bottom=0;right=0;pointerEvents=1;fontSize=16;" parent="JZROtMAfgJJSasp0t0-5-27" vertex="1">
          <mxGeometry width="290" height="52" as="geometry">
            <mxRectangle width="290" height="52" as="alternateBounds" />
          </mxGeometry>
        </mxCell>
        <mxCell id="JZROtMAfgJJSasp0t0-5-29" value="&lt;font style=&quot;font-size: 17px;&quot;&gt;6&lt;/font&gt;" style="shape=partialRectangle;html=1;whiteSpace=wrap;connectable=0;strokeColor=inherit;overflow=hidden;fillColor=none;top=0;left=0;bottom=0;right=0;pointerEvents=1;fontSize=16;" parent="JZROtMAfgJJSasp0t0-5-27" vertex="1">
          <mxGeometry x="290" width="120" height="52" as="geometry">
            <mxRectangle width="120" height="52" as="alternateBounds" />
          </mxGeometry>
        </mxCell>
        <mxCell id="JZROtMAfgJJSasp0t0-5-30" value="" style="shape=tableRow;horizontal=0;startSize=0;swimlaneHead=0;swimlaneBody=0;strokeColor=inherit;top=0;left=0;bottom=0;right=0;collapsible=0;dropTarget=0;fillColor=none;points=[[0,0.5],[1,0.5]];portConstraint=eastwest;fontSize=16;" parent="JZROtMAfgJJSasp0t0-5-23" vertex="1">
          <mxGeometry y="135" width="410" height="53" as="geometry" />
        </mxCell>
        <mxCell id="JZROtMAfgJJSasp0t0-5-31" value="&lt;font style=&quot;font-size: 17px;&quot;&gt;&quot;conditionâ.&quot;text&quot;: &quot;&lt;font style=&quot;font-size: 17px;&quot; color=&quot;#006666&quot;&gt;Blizzard&lt;/font&gt;â&lt;br&gt;&quot;conditionâ.&quot;code&quot;: 230&lt;/font&gt;" style="shape=partialRectangle;html=1;whiteSpace=wrap;connectable=0;strokeColor=inherit;overflow=hidden;fillColor=none;top=0;left=0;bottom=0;right=0;pointerEvents=1;fontSize=16;" parent="JZROtMAfgJJSasp0t0-5-30" vertex="1">
          <mxGeometry width="290" height="53" as="geometry">
            <mxRectangle width="290" height="53" as="alternateBounds" />
          </mxGeometry>
        </mxCell>
        <mxCell id="JZROtMAfgJJSasp0t0-5-32" value="&lt;font style=&quot;font-size: 17px;&quot;&gt;0&lt;/font&gt;" style="shape=partialRectangle;html=1;whiteSpace=wrap;connectable=0;strokeColor=inherit;overflow=hidden;fillColor=none;top=0;left=0;bottom=0;right=0;pointerEvents=1;fontSize=16;" parent="JZROtMAfgJJSasp0t0-5-30" vertex="1">
          <mxGeometry x="290" width="120" height="53" as="geometry">
            <mxRectangle width="120" height="53" as="alternateBounds" />
          </mxGeometry>
        </mxCell>
        <mxCell id="JZROtMAfgJJSasp0t0-5-33" style="shape=tableRow;horizontal=0;startSize=0;swimlaneHead=0;swimlaneBody=0;strokeColor=inherit;top=0;left=0;bottom=0;right=0;collapsible=0;dropTarget=0;fillColor=none;points=[[0,0.5],[1,0.5]];portConstraint=eastwest;fontSize=16;" parent="JZROtMAfgJJSasp0t0-5-23" vertex="1">
          <mxGeometry y="188" width="410" height="52" as="geometry" />
        </mxCell>
        <mxCell id="JZROtMAfgJJSasp0t0-5-34" value="&lt;font style=&quot;font-size: 17px;&quot;&gt;...&lt;/font&gt;" style="shape=partialRectangle;html=1;whiteSpace=wrap;connectable=0;strokeColor=inherit;overflow=hidden;fillColor=none;top=0;left=0;bottom=0;right=0;pointerEvents=1;fontSize=16;" parent="JZROtMAfgJJSasp0t0-5-33" vertex="1">
          <mxGeometry width="290" height="52" as="geometry">
            <mxRectangle width="290" height="52" as="alternateBounds" />
          </mxGeometry>
        </mxCell>
        <mxCell id="JZROtMAfgJJSasp0t0-5-35" value="..." style="shape=partialRectangle;html=1;whiteSpace=wrap;connectable=0;strokeColor=inherit;overflow=hidden;fillColor=none;top=0;left=0;bottom=0;right=0;pointerEvents=1;fontSize=16;" parent="JZROtMAfgJJSasp0t0-5-33" vertex="1">
          <mxGeometry x="290" width="120" height="52" as="geometry">
            <mxRectangle width="120" height="52" as="alternateBounds" />
          </mxGeometry>
        </mxCell>
        <mxCell id="JZROtMAfgJJSasp0t0-5-36" style="edgeStyle=orthogonalEdgeStyle;rounded=0;orthogonalLoop=1;jettySize=auto;html=1;entryX=0.25;entryY=0;entryDx=0;entryDy=0;exitX=1;exitY=0.5;exitDx=0;exitDy=0;" parent="1" source="ya2SKJEDVi4XLlaK7QYM-29" target="JZROtMAfgJJSasp0t0-5-23" edge="1">
          <mxGeometry relative="1" as="geometry">
            <mxPoint x="1300" y="1880" as="sourcePoint" />
          </mxGeometry>
        </mxCell>
        <mxCell id="JZROtMAfgJJSasp0t0-5-37" value="&lt;font style=&quot;font-size: 15px;&quot;&gt;Retard enregistrÃ© sur le trajet = XXjours XXheures XXminutes&lt;/font&gt;" style="shape=ext;double=1;rounded=0;whiteSpace=wrap;html=1;" parent="1" vertex="1">
          <mxGeometry x="726.5" y="685" width="523.5" height="80" as="geometry" />
        </mxCell>
        <mxCell id="JZROtMAfgJJSasp0t0-5-38" style="edgeStyle=orthogonalEdgeStyle;rounded=0;orthogonalLoop=1;jettySize=auto;html=1;entryX=0.5;entryY=0;entryDx=0;entryDy=0;" parent="1" source="JZROtMAfgJJSasp0t0-5-39" target="JZROtMAfgJJSasp0t0-5-37" edge="1">
          <mxGeometry relative="1" as="geometry" />
        </mxCell>
        <UserObject label="&lt;font style=&quot;forced-color-adjust: none; color: rgb(0, 0, 0); font-family: Helvetica; font-style: normal; font-variant-ligatures: normal; font-variant-caps: normal; font-weight: 400; letter-spacing: normal; orphans: 2; text-align: center; text-indent: 0px; text-transform: none; widows: 2; word-spacing: 0px; -webkit-text-stroke-width: 0px; white-space: nowrap; background-color: rgb(251, 251, 251); text-decoration-thickness: initial; text-decoration-style: initial; text-decoration-color: initial; font-size: 16px;&quot;&gt;&lt;span style=&quot;forced-color-adjust: none; background-color: rgb(255, 255, 255);&quot;&gt;departure.scheduled=&lt;/span&gt;&lt;/font&gt;&lt;span style=&quot;forced-color-adjust: none; color: rgb(0, 0, 0); font-family: Helvetica; font-style: normal; font-variant-ligatures: normal; font-variant-caps: normal; font-weight: 400; letter-spacing: normal; orphans: 2; text-align: center; text-indent: 0px; text-transform: none; widows: 2; word-spacing: 0px; -webkit-text-stroke-width: 0px; white-space: normal; background-color: rgb(251, 251, 251); text-decoration-thickness: initial; text-decoration-style: initial; text-decoration-color: initial; font-size: 16px;&quot;&gt;&quot;&lt;/span&gt;&lt;font color=&quot;#006666&quot; style=&quot;forced-color-adjust: none; font-family: Helvetica; font-style: normal; font-variant-ligatures: normal; font-variant-caps: normal; font-weight: 400; letter-spacing: normal; orphans: 2; text-align: center; text-indent: 0px; text-transform: none; widows: 2; word-spacing: 0px; -webkit-text-stroke-width: 0px; white-space: normal; background-color: rgb(251, 251, 251); text-decoration-thickness: initial; text-decoration-style: initial; text-decoration-color: initial; font-size: 16px;&quot;&gt;2019-02-31T04:15:00+00:00&lt;/font&gt;&lt;span style=&quot;forced-color-adjust: none; color: rgb(0, 0, 0); font-family: Helvetica; font-style: normal; font-variant-ligatures: normal; font-variant-caps: normal; font-weight: 400; letter-spacing: normal; orphans: 2; text-align: center; text-indent: 0px; text-transform: none; widows: 2; word-spacing: 0px; -webkit-text-stroke-width: 0px; white-space: normal; background-color: rgb(251, 251, 251); text-decoration-thickness: initial; text-decoration-style: initial; text-decoration-color: initial; font-size: 16px;&quot;&gt;&quot;&lt;br style=&quot;forced-color-adjust: none;&quot;&gt;&lt;/span&gt;&lt;font style=&quot;forced-color-adjust: none; color: rgb(0, 0, 0); font-family: Helvetica; font-style: normal; font-variant-ligatures: normal; font-variant-caps: normal; font-weight: 400; letter-spacing: normal; orphans: 2; text-align: center; text-indent: 0px; text-transform: none; widows: 2; word-spacing: 0px; -webkit-text-stroke-width: 0px; white-space: nowrap; background-color: rgb(251, 251, 251); text-decoration-thickness: initial; text-decoration-style: initial; text-decoration-color: initial; font-size: 16px;&quot;&gt;&lt;span style=&quot;forced-color-adjust: none; background-color: rgb(255, 255, 255);&quot;&gt;departure.estimated=&lt;/span&gt;&lt;/font&gt;&lt;span style=&quot;forced-color-adjust: none; color: rgb(0, 0, 0); font-family: Helvetica; font-style: normal; font-variant-ligatures: normal; font-variant-caps: normal; font-weight: 400; letter-spacing: normal; orphans: 2; text-align: center; text-indent: 0px; text-transform: none; widows: 2; word-spacing: 0px; -webkit-text-stroke-width: 0px; white-space: normal; background-color: rgb(251, 251, 251); text-decoration-thickness: initial; text-decoration-style: initial; text-decoration-color: initial; font-size: 16px;&quot;&gt;&quot;&lt;/span&gt;&lt;font color=&quot;#006666&quot; style=&quot;forced-color-adjust: none; font-family: Helvetica; font-style: normal; font-variant-ligatures: normal; font-variant-caps: normal; font-weight: 400; letter-spacing: normal; orphans: 2; text-align: center; text-indent: 0px; text-transform: none; widows: 2; word-spacing: 0px; -webkit-text-stroke-width: 0px; white-space: normal; background-color: rgb(251, 251, 251); text-decoration-thickness: initial; text-decoration-style: initial; text-decoration-color: initial; font-size: 16px;&quot;&gt;2019-02-31T04:15:00+00:00&lt;/font&gt;&lt;span style=&quot;forced-color-adjust: none; color: rgb(0, 0, 0); font-family: Helvetica; font-style: normal; font-variant-ligatures: normal; font-variant-caps: normal; font-weight: 400; letter-spacing: normal; orphans: 2; text-align: center; text-indent: 0px; text-transform: none; widows: 2; word-spacing: 0px; -webkit-text-stroke-width: 0px; white-space: normal; background-color: rgb(251, 251, 251); text-decoration-thickness: initial; text-decoration-style: initial; text-decoration-color: initial; font-size: 16px;&quot;&gt;&quot;&lt;br style=&quot;forced-color-adjust: none;&quot;&gt;&lt;/span&gt;&lt;font style=&quot;forced-color-adjust: none; color: rgb(0, 0, 0); font-family: Helvetica; font-style: normal; font-variant-ligatures: normal; font-variant-caps: normal; font-weight: 400; letter-spacing: normal; orphans: 2; text-align: center; text-indent: 0px; text-transform: none; widows: 2; word-spacing: 0px; -webkit-text-stroke-width: 0px; white-space: nowrap; background-color: rgb(251, 251, 251); text-decoration-thickness: initial; text-decoration-style: initial; text-decoration-color: initial; font-size: 16px;&quot;&gt;&lt;span style=&quot;forced-color-adjust: none; background-color: rgb(255, 255, 255);&quot;&gt;departure.actual=&lt;/span&gt;&lt;/font&gt;&lt;span style=&quot;forced-color-adjust: none; color: rgb(0, 0, 0); font-family: Helvetica; font-style: normal; font-variant-ligatures: normal; font-variant-caps: normal; font-weight: 400; letter-spacing: normal; orphans: 2; text-align: center; text-indent: 0px; text-transform: none; widows: 2; word-spacing: 0px; -webkit-text-stroke-width: 0px; white-space: normal; background-color: rgb(251, 251, 251); text-decoration-thickness: initial; text-decoration-style: initial; text-decoration-color: initial; font-size: 16px;&quot;&gt;&quot;&lt;/span&gt;&lt;font color=&quot;#006666&quot; style=&quot;forced-color-adjust: none; font-family: Helvetica; font-style: normal; font-variant-ligatures: normal; font-variant-caps: normal; font-weight: 400; letter-spacing: normal; orphans: 2; text-align: center; text-indent: 0px; text-transform: none; widows: 2; word-spacing: 0px; -webkit-text-stroke-width: 0px; white-space: normal; background-color: rgb(251, 251, 251); text-decoration-thickness: initial; text-decoration-style: initial; text-decoration-color: initial; font-size: 16px;&quot;&gt;2019-02-31T04:15:00+00:00&lt;/font&gt;&lt;span style=&quot;forced-color-adjust: none; color: rgb(0, 0, 0); font-family: Helvetica; font-style: normal; font-variant-ligatures: normal; font-variant-caps: normal; font-weight: 400; letter-spacing: normal; orphans: 2; text-align: center; text-indent: 0px; text-transform: none; widows: 2; word-spacing: 0px; -webkit-text-stroke-width: 0px; white-space: normal; background-color: rgb(251, 251, 251); text-decoration-thickness: initial; text-decoration-style: initial; text-decoration-color: initial; font-size: 16px;&quot;&gt;&quot;&lt;/span&gt;&lt;br style=&quot;forced-color-adjust: none; color: rgb(0, 0, 0); font-family: Helvetica; font-style: normal; font-variant-ligatures: normal; font-variant-caps: normal; font-weight: 400; letter-spacing: normal; orphans: 2; text-align: center; text-indent: 0px; text-transform: none; widows: 2; word-spacing: 0px; -webkit-text-stroke-width: 0px; white-space: normal; background-color: rgb(251, 251, 251); text-decoration-thickness: initial; text-decoration-style: initial; text-decoration-color: initial; font-size: 16px;&quot;&gt;&lt;font style=&quot;forced-color-adjust: none; color: rgb(0, 0, 0); font-family: Helvetica; font-style: normal; font-variant-ligatures: normal; font-variant-caps: normal; font-weight: 400; letter-spacing: normal; orphans: 2; text-align: center; text-indent: 0px; text-transform: none; widows: 2; word-spacing: 0px; -webkit-text-stroke-width: 0px; white-space: nowrap; background-color: rgb(251, 251, 251); text-decoration-thickness: initial; text-decoration-style: initial; text-decoration-color: initial; font-size: 16px;&quot;&gt;&lt;span style=&quot;forced-color-adjust: none; background-color: rgb(255, 255, 255);&quot;&gt;arrival.scheduled=&lt;/span&gt;&lt;/font&gt;&lt;span style=&quot;forced-color-adjust: none; color: rgb(0, 0, 0); font-family: Helvetica; font-style: normal; font-variant-ligatures: normal; font-variant-caps: normal; font-weight: 400; letter-spacing: normal; orphans: 2; text-align: center; text-indent: 0px; text-transform: none; widows: 2; word-spacing: 0px; -webkit-text-stroke-width: 0px; white-space: normal; background-color: rgb(251, 251, 251); text-decoration-thickness: initial; text-decoration-style: initial; text-decoration-color: initial; font-size: 16px;&quot;&gt;&quot;&lt;/span&gt;&lt;font color=&quot;#006666&quot; style=&quot;forced-color-adjust: none; font-family: Helvetica; font-style: normal; font-variant-ligatures: normal; font-variant-caps: normal; font-weight: 400; letter-spacing: normal; orphans: 2; text-align: center; text-indent: 0px; text-transform: none; widows: 2; word-spacing: 0px; -webkit-text-stroke-width: 0px; white-space: normal; background-color: rgb(251, 251, 251); text-decoration-thickness: initial; text-decoration-style: initial; text-decoration-color: initial; font-size: 16px;&quot;&gt;2019-02-31T11:23:00+00:00&lt;/font&gt;&lt;span style=&quot;forced-color-adjust: none; color: rgb(0, 0, 0); font-family: Helvetica; font-style: normal; font-variant-ligatures: normal; font-variant-caps: normal; font-weight: 400; letter-spacing: normal; orphans: 2; text-align: center; text-indent: 0px; text-transform: none; widows: 2; word-spacing: 0px; -webkit-text-stroke-width: 0px; white-space: normal; background-color: rgb(251, 251, 251); text-decoration-thickness: initial; text-decoration-style: initial; text-decoration-color: initial; font-size: 16px;&quot;&gt;&quot;&lt;br style=&quot;forced-color-adjust: none;&quot;&gt;&lt;/span&gt;&lt;font style=&quot;forced-color-adjust: none; color: rgb(0, 0, 0); font-family: Helvetica; font-style: normal; font-variant-ligatures: normal; font-variant-caps: normal; font-weight: 400; letter-spacing: normal; orphans: 2; text-align: center; text-indent: 0px; text-transform: none; widows: 2; word-spacing: 0px; -webkit-text-stroke-width: 0px; white-space: nowrap; background-color: rgb(251, 251, 251); text-decoration-thickness: initial; text-decoration-style: initial; text-decoration-color: initial; font-size: 16px;&quot;&gt;&lt;span style=&quot;forced-color-adjust: none; background-color: rgb(255, 255, 255);&quot;&gt;arrival.estimated=&lt;/span&gt;&lt;/font&gt;&lt;span style=&quot;forced-color-adjust: none; color: rgb(0, 0, 0); font-family: Helvetica; font-style: normal; font-variant-ligatures: normal; font-variant-caps: normal; font-weight: 400; letter-spacing: normal; orphans: 2; text-align: center; text-indent: 0px; text-transform: none; widows: 2; word-spacing: 0px; -webkit-text-stroke-width: 0px; white-space: normal; background-color: rgb(251, 251, 251); text-decoration-thickness: initial; text-decoration-style: initial; text-decoration-color: initial; font-size: 16px;&quot;&gt;&quot;&lt;/span&gt;&lt;font color=&quot;#006666&quot; style=&quot;forced-color-adjust: none; font-family: Helvetica; font-style: normal; font-variant-ligatures: normal; font-variant-caps: normal; font-weight: 400; letter-spacing: normal; orphans: 2; text-align: center; text-indent: 0px; text-transform: none; widows: 2; word-spacing: 0px; -webkit-text-stroke-width: 0px; white-space: normal; background-color: rgb(251, 251, 251); text-decoration-thickness: initial; text-decoration-style: initial; text-decoration-color: initial; font-size: 16px;&quot;&gt;2019-02-31T11:23:00+00:00&lt;/font&gt;&lt;span style=&quot;forced-color-adjust: none; color: rgb(0, 0, 0); font-family: Helvetica; font-style: normal; font-variant-ligatures: normal; font-variant-caps: normal; font-weight: 400; letter-spacing: normal; orphans: 2; text-align: center; text-indent: 0px; text-transform: none; widows: 2; word-spacing: 0px; -webkit-text-stroke-width: 0px; white-space: normal; background-color: rgb(251, 251, 251); text-decoration-thickness: initial; text-decoration-style: initial; text-decoration-color: initial; font-size: 16px;&quot;&gt;&quot;&lt;/span&gt;" link="&lt;font style=&quot;forced-color-adjust: none; color: rgb(0, 0, 0); font-family: Helvetica; font-style: normal; font-variant-ligatures: normal; font-variant-caps: normal; font-weight: 400; letter-spacing: normal; orphans: 2; text-align: center; text-indent: 0px; text-transform: none; widows: 2; word-spacing: 0px; -webkit-text-stroke-width: 0px; white-space: nowrap; background-color: rgb(251, 251, 251); text-decoration-thickness: initial; text-decoration-style: initial; text-decoration-color: initial; font-size: 16px;&quot;&gt;&lt;span style=&quot;forced-color-adjust: none; background-color: rgb(255, 255, 255);&quot;&gt;departure.scheduled=&lt;/span&gt;&lt;/font&gt;&lt;span style=&quot;forced-color-adjust: none; color: rgb(0, 0, 0); font-family: Helvetica; font-style: normal; font-variant-ligatures: normal; font-variant-caps: normal; font-weight: 400; letter-spacing: normal; orphans: 2; text-align: center; text-indent: 0px; text-transform: none; widows: 2; word-spacing: 0px; -webkit-text-stroke-width: 0px; white-space: normal; background-color: rgb(251, 251, 251); text-decoration-thickness: initial; text-decoration-style: initial; text-decoration-color: initial; font-size: 16px;&quot;&gt;&quot;&lt;/span&gt;&lt;font color=&quot;#006666&quot; style=&quot;forced-color-adjust: none; font-family: Helvetica; font-style: normal; font-variant-ligatures: normal; font-variant-caps: normal; font-weight: 400; letter-spacing: normal; orphans: 2; text-align: center; text-indent: 0px; text-transform: none; widows: 2; word-spacing: 0px; -webkit-text-stroke-width: 0px; white-space: normal; background-color: rgb(251, 251, 251); text-decoration-thickness: initial; text-decoration-style: initial; text-decoration-color: initial; font-size: 16px;&quot;&gt;2019-02-31T04:15:00+00:00&lt;/font&gt;&lt;span style=&quot;forced-color-adjust: none; color: rgb(0, 0, 0); font-family: Helvetica; font-style: normal; font-variant-ligatures: normal; font-variant-caps: normal; font-weight: 400; letter-spacing: normal; orphans: 2; text-align: center; text-indent: 0px; text-transform: none; widows: 2; word-spacing: 0px; -webkit-text-stroke-width: 0px; white-space: normal; background-color: rgb(251, 251, 251); text-decoration-thickness: initial; text-decoration-style: initial; text-decoration-color: initial; font-size: 16px;&quot;&gt;&quot;&lt;br style=&quot;forced-color-adjust: none;&quot;&gt;&lt;/span&gt;&lt;font style=&quot;forced-color-adjust: none; color: rgb(0, 0, 0); font-family: Helvetica; font-style: normal; font-variant-ligatures: normal; font-variant-caps: normal; font-weight: 400; letter-spacing: normal; orphans: 2; text-align: center; text-indent: 0px; text-transform: none; widows: 2; word-spacing: 0px; -webkit-text-stroke-width: 0px; white-space: nowrap; background-color: rgb(251, 251, 251); text-decoration-thickness: initial; text-decoration-style: initial; text-decoration-color: initial; font-size: 16px;&quot;&gt;&lt;span style=&quot;forced-color-adjust: none; background-color: rgb(255, 255, 255);&quot;&gt;departure.estimated=&lt;/span&gt;&lt;/font&gt;&lt;span style=&quot;forced-color-adjust: none; color: rgb(0, 0, 0); font-family: Helvetica; font-style: normal; font-variant-ligatures: normal; font-variant-caps: normal; font-weight: 400; letter-spacing: normal; orphans: 2; text-align: center; text-indent: 0px; text-transform: none; widows: 2; word-spacing: 0px; -webkit-text-stroke-width: 0px; white-space: normal; background-color: rgb(251, 251, 251); text-decoration-thickness: initial; text-decoration-style: initial; text-decoration-color: initial; font-size: 16px;&quot;&gt;&quot;&lt;/span&gt;&lt;font color=&quot;#006666&quot; style=&quot;forced-color-adjust: none; font-family: Helvetica; font-style: normal; font-variant-ligatures: normal; font-variant-caps: normal; font-weight: 400; letter-spacing: normal; orphans: 2; text-align: center; text-indent: 0px; text-transform: none; widows: 2; word-spacing: 0px; -webkit-text-stroke-width: 0px; white-space: normal; background-color: rgb(251, 251, 251); text-decoration-thickness: initial; text-decoration-style: initial; text-decoration-color: initial; font-size: 16px;&quot;&gt;2019-02-31T04:15:00+00:00&lt;/font&gt;&lt;span style=&quot;forced-color-adjust: none; color: rgb(0, 0, 0); font-family: Helvetica; font-style: normal; font-variant-ligatures: normal; font-variant-caps: normal; font-weight: 400; letter-spacing: normal; orphans: 2; text-align: center; text-indent: 0px; text-transform: none; widows: 2; word-spacing: 0px; -webkit-text-stroke-width: 0px; white-space: normal; background-color: rgb(251, 251, 251); text-decoration-thickness: initial; text-decoration-style: initial; text-decoration-color: initial; font-size: 16px;&quot;&gt;&quot;&lt;br style=&quot;forced-color-adjust: none;&quot;&gt;&lt;/span&gt;&lt;font style=&quot;forced-color-adjust: none; color: rgb(0, 0, 0); font-family: Helvetica; font-style: normal; font-variant-ligatures: normal; font-variant-caps: normal; font-weight: 400; letter-spacing: normal; orphans: 2; text-align: center; text-indent: 0px; text-transform: none; widows: 2; word-spacing: 0px; -webkit-text-stroke-width: 0px; white-space: nowrap; background-color: rgb(251, 251, 251); text-decoration-thickness: initial; text-decoration-style: initial; text-decoration-color: initial; font-size: 16px;&quot;&gt;&lt;span style=&quot;forced-color-adjust: none; background-color: rgb(255, 255, 255);&quot;&gt;departure.actual=&lt;/span&gt;&lt;/font&gt;&lt;span style=&quot;forced-color-adjust: none; color: rgb(0, 0, 0); font-family: Helvetica; font-style: normal; font-variant-ligatures: normal; font-variant-caps: normal; font-weight: 400; letter-spacing: normal; orphans: 2; text-align: center; text-indent: 0px; text-transform: none; widows: 2; word-spacing: 0px; -webkit-text-stroke-width: 0px; white-space: normal; background-color: rgb(251, 251, 251); text-decoration-thickness: initial; text-decoration-style: initial; text-decoration-color: initial; font-size: 16px;&quot;&gt;&quot;&lt;/span&gt;&lt;font color=&quot;#006666&quot; style=&quot;forced-color-adjust: none; font-family: Helvetica; font-style: normal; font-variant-ligatures: normal; font-variant-caps: normal; font-weight: 400; letter-spacing: normal; orphans: 2; text-align: center; text-indent: 0px; text-transform: none; widows: 2; word-spacing: 0px; -webkit-text-stroke-width: 0px; white-space: normal; background-color: rgb(251, 251, 251); text-decoration-thickness: initial; text-decoration-style: initial; text-decoration-color: initial; font-size: 16px;&quot;&gt;2019-02-31T04:15:00+00:00&lt;/font&gt;&lt;span style=&quot;forced-color-adjust: none; color: rgb(0, 0, 0); font-family: Helvetica; font-style: normal; font-variant-ligatures: normal; font-variant-caps: normal; font-weight: 400; letter-spacing: normal; orphans: 2; text-align: center; text-indent: 0px; text-transform: none; widows: 2; word-spacing: 0px; -webkit-text-stroke-width: 0px; white-space: normal; background-color: rgb(251, 251, 251); text-decoration-thickness: initial; text-decoration-style: initial; text-decoration-color: initial; font-size: 16px;&quot;&gt;&quot;&lt;/span&gt;&lt;br style=&quot;forced-color-adjust: none; color: rgb(0, 0, 0); font-family: Helvetica; font-style: normal; font-variant-ligatures: normal; font-variant-caps: normal; font-weight: 400; letter-spacing: normal; orphans: 2; text-align: center; text-indent: 0px; text-transform: none; widows: 2; word-spacing: 0px; -webkit-text-stroke-width: 0px; white-space: normal; background-color: rgb(251, 251, 251); text-decoration-thickness: initial; text-decoration-style: initial; text-decoration-color: initial; font-size: 16px;&quot;&gt;&lt;font style=&quot;forced-color-adjust: none; color: rgb(0, 0, 0); font-family: Helvetica; font-style: normal; font-variant-ligatures: normal; font-variant-caps: normal; font-weight: 400; letter-spacing: normal; orphans: 2; text-align: center; text-indent: 0px; text-transform: none; widows: 2; word-spacing: 0px; -webkit-text-stroke-width: 0px; white-space: nowrap; background-color: rgb(251, 251, 251); text-decoration-thickness: initial; text-decoration-style: initial; text-decoration-color: initial; font-size: 16px;&quot;&gt;&lt;span style=&quot;forced-color-adjust: none; background-color: rgb(255, 255, 255);&quot;&gt;arrival.scheduled=&lt;/span&gt;&lt;/font&gt;&lt;span style=&quot;forced-color-adjust: none; color: rgb(0, 0, 0); font-family: Helvetica; font-style: normal; font-variant-ligatures: normal; font-variant-caps: normal; font-weight: 400; letter-spacing: normal; orphans: 2; text-align: center; text-indent: 0px; text-transform: none; widows: 2; word-spacing: 0px; -webkit-text-stroke-width: 0px; white-space: normal; background-color: rgb(251, 251, 251); text-decoration-thickness: initial; text-decoration-style: initial; text-decoration-color: initial; font-size: 16px;&quot;&gt;&quot;&lt;/span&gt;&lt;font color=&quot;#006666&quot; style=&quot;forced-color-adjust: none; font-family: Helvetica; font-style: normal; font-variant-ligatures: normal; font-variant-caps: normal; font-weight: 400; letter-spacing: normal; orphans: 2; text-align: center; text-indent: 0px; text-transform: none; widows: 2; word-spacing: 0px; -webkit-text-stroke-width: 0px; white-space: normal; background-color: rgb(251, 251, 251); text-decoration-thickness: initial; text-decoration-style: initial; text-decoration-color: initial; font-size: 16px;&quot;&gt;2019-02-31T11:23:00+00:00&lt;/font&gt;&lt;span style=&quot;forced-color-adjust: none; color: rgb(0, 0, 0); font-family: Helvetica; font-style: normal; font-variant-ligatures: normal; font-variant-caps: normal; font-weight: 400; letter-spacing: normal; orphans: 2; text-align: center; text-indent: 0px; text-transform: none; widows: 2; word-spacing: 0px; -webkit-text-stroke-width: 0px; white-space: normal; background-color: rgb(251, 251, 251); text-decoration-thickness: initial; text-decoration-style: initial; text-decoration-color: initial; font-size: 16px;&quot;&gt;&quot;&lt;br style=&quot;forced-color-adjust: none;&quot;&gt;&lt;/span&gt;&lt;font style=&quot;forced-color-adjust: none; color: rgb(0, 0, 0); font-family: Helvetica; font-style: normal; font-variant-ligatures: normal; font-variant-caps: normal; font-weight: 400; letter-spacing: normal; orphans: 2; text-align: center; text-indent: 0px; text-transform: none; widows: 2; word-spacing: 0px; -webkit-text-stroke-width: 0px; white-space: nowrap; background-color: rgb(251, 251, 251); text-decoration-thickness: initial; text-decoration-style: initial; text-decoration-color: initial; font-size: 16px;&quot;&gt;&lt;span style=&quot;forced-color-adjust: none; background-color: rgb(255, 255, 255);&quot;&gt;arrival.estimated=&lt;/span&gt;&lt;/font&gt;&lt;span style=&quot;forced-color-adjust: none; color: rgb(0, 0, 0); font-family: Helvetica; font-style: normal; font-variant-ligatures: normal; font-variant-caps: normal; font-weight: 400; letter-spacing: normal; orphans: 2; text-align: center; text-indent: 0px; text-transform: none; widows: 2; word-spacing: 0px; -webkit-text-stroke-width: 0px; white-space: normal; background-color: rgb(251, 251, 251); text-decoration-thickness: initial; text-decoration-style: initial; text-decoration-color: initial; font-size: 16px;&quot;&gt;&quot;&lt;/span&gt;&lt;font color=&quot;#006666&quot; style=&quot;forced-color-adjust: none; font-family: Helvetica; font-style: normal; font-variant-ligatures: normal; font-variant-caps: normal; font-weight: 400; letter-spacing: normal; orphans: 2; text-align: center; text-indent: 0px; text-transform: none; widows: 2; word-spacing: 0px; -webkit-text-stroke-width: 0px; white-space: normal; background-color: rgb(251, 251, 251); text-decoration-thickness: initial; text-decoration-style: initial; text-decoration-color: initial; font-size: 16px;&quot;&gt;2019-02-31T11:23:00+00:00&lt;/font&gt;&lt;span style=&quot;forced-color-adjust: none; color: rgb(0, 0, 0); font-family: Helvetica; font-style: normal; font-variant-ligatures: normal; font-variant-caps: normal; font-weight: 400; letter-spacing: normal; orphans: 2; text-align: center; text-indent: 0px; text-transform: none; widows: 2; word-spacing: 0px; -webkit-text-stroke-width: 0px; white-space: normal; background-color: rgb(251, 251, 251); text-decoration-thickness: initial; text-decoration-style: initial; text-decoration-color: initial; font-size: 16px;&quot;&gt;&quot;&lt;/span&gt;" id="JZROtMAfgJJSasp0t0-5-39">
          <mxCell style="text;whiteSpace=wrap;html=1;" parent="1" vertex="1">
            <mxGeometry x="788.25" y="500" width="400" height="120" as="geometry" />
          </mxCell>
        </UserObject>
        <mxCell id="JZROtMAfgJJSasp0t0-5-70" style="edgeStyle=orthogonalEdgeStyle;rounded=0;orthogonalLoop=1;jettySize=auto;html=1;entryX=0.5;entryY=0;entryDx=0;entryDy=0;" parent="1" source="JZROtMAfgJJSasp0t0-5-40" target="JZROtMAfgJJSasp0t0-5-57" edge="1">
          <mxGeometry relative="1" as="geometry">
            <Array as="points">
              <mxPoint x="1600" y="1000" />
              <mxPoint x="1600" y="1440" />
              <mxPoint x="2065" y="1440" />
            </Array>
          </mxGeometry>
        </mxCell>
        <mxCell id="JZROtMAfgJJSasp0t0-5-40" value="&lt;font style=&quot;font-size: 15px;&quot;&gt;Machine Learning&lt;/font&gt;" style="ellipse;shape=cloud;whiteSpace=wrap;html=1;" parent="1" vertex="1">
          <mxGeometry x="981.5" y="905" width="420" height="190" as="geometry" />
        </mxCell>
        <mxCell id="JZROtMAfgJJSasp0t0-5-41" style="edgeStyle=orthogonalEdgeStyle;rounded=0;orthogonalLoop=1;jettySize=auto;html=1;entryX=0.4;entryY=0.1;entryDx=0;entryDy=0;entryPerimeter=0;" parent="1" source="JZROtMAfgJJSasp0t0-5-37" target="JZROtMAfgJJSasp0t0-5-40" edge="1">
          <mxGeometry relative="1" as="geometry" />
        </mxCell>
        <mxCell id="JZROtMAfgJJSasp0t0-5-42" style="edgeStyle=orthogonalEdgeStyle;rounded=0;orthogonalLoop=1;jettySize=auto;html=1;entryX=0.55;entryY=0.95;entryDx=0;entryDy=0;entryPerimeter=0;exitX=0.5;exitY=0;exitDx=0;exitDy=0;" parent="1" source="JZROtMAfgJJSasp0t0-5-23" target="JZROtMAfgJJSasp0t0-5-40" edge="1">
          <mxGeometry relative="1" as="geometry">
            <Array as="points">
              <mxPoint x="1555" y="1490" />
              <mxPoint x="1213" y="1490" />
            </Array>
          </mxGeometry>
        </mxCell>
        <mxCell id="JZROtMAfgJJSasp0t0-5-57" value="Table des &quot;poids&quot;" style="shape=table;startSize=30;container=1;collapsible=0;childLayout=tableLayout;strokeColor=default;fontSize=16;" parent="1" vertex="1">
          <mxGeometry x="1900" y="1590" width="330" height="240" as="geometry" />
        </mxCell>
        <mxCell id="JZROtMAfgJJSasp0t0-5-58" value="" style="shape=tableRow;horizontal=0;startSize=0;swimlaneHead=0;swimlaneBody=0;strokeColor=inherit;top=0;left=0;bottom=0;right=0;collapsible=0;dropTarget=0;fillColor=none;points=[[0,0.5],[1,0.5]];portConstraint=eastwest;fontSize=16;" parent="JZROtMAfgJJSasp0t0-5-57" vertex="1">
          <mxGeometry y="30" width="330" height="70" as="geometry" />
        </mxCell>
        <mxCell id="JZROtMAfgJJSasp0t0-5-59" value="Poids = ???" style="shape=partialRectangle;html=1;whiteSpace=wrap;connectable=0;strokeColor=inherit;overflow=hidden;fillColor=none;top=0;left=0;bottom=0;right=0;pointerEvents=1;fontSize=16;" parent="JZROtMAfgJJSasp0t0-5-58" vertex="1">
          <mxGeometry width="120" height="70" as="geometry">
            <mxRectangle width="120" height="70" as="alternateBounds" />
          </mxGeometry>
        </mxCell>
        <mxCell id="JZROtMAfgJJSasp0t0-5-60" value="Retard associÃ© = ???" style="shape=partialRectangle;html=1;whiteSpace=wrap;connectable=0;strokeColor=inherit;overflow=hidden;fillColor=none;top=0;left=0;bottom=0;right=0;pointerEvents=1;fontSize=16;" parent="JZROtMAfgJJSasp0t0-5-58" vertex="1">
          <mxGeometry x="120" width="210" height="70" as="geometry">
            <mxRectangle width="210" height="70" as="alternateBounds" />
          </mxGeometry>
        </mxCell>
        <mxCell id="JZROtMAfgJJSasp0t0-5-62" value="" style="shape=tableRow;horizontal=0;startSize=0;swimlaneHead=0;swimlaneBody=0;strokeColor=inherit;top=0;left=0;bottom=0;right=0;collapsible=0;dropTarget=0;fillColor=none;points=[[0,0.5],[1,0.5]];portConstraint=eastwest;fontSize=16;" parent="JZROtMAfgJJSasp0t0-5-57" vertex="1">
          <mxGeometry y="100" width="330" height="70" as="geometry" />
        </mxCell>
        <mxCell id="JZROtMAfgJJSasp0t0-5-63" value="Poids = ???" style="shape=partialRectangle;html=1;whiteSpace=wrap;connectable=0;strokeColor=inherit;overflow=hidden;fillColor=none;top=0;left=0;bottom=0;right=0;pointerEvents=1;fontSize=16;" parent="JZROtMAfgJJSasp0t0-5-62" vertex="1">
          <mxGeometry width="120" height="70" as="geometry">
            <mxRectangle width="120" height="70" as="alternateBounds" />
          </mxGeometry>
        </mxCell>
        <mxCell id="JZROtMAfgJJSasp0t0-5-64" value="Retard associÃ© = ???" style="shape=partialRectangle;html=1;whiteSpace=wrap;connectable=0;strokeColor=inherit;overflow=hidden;fillColor=none;top=0;left=0;bottom=0;right=0;pointerEvents=1;fontSize=16;" parent="JZROtMAfgJJSasp0t0-5-62" vertex="1">
          <mxGeometry x="120" width="210" height="70" as="geometry">
            <mxRectangle width="210" height="70" as="alternateBounds" />
          </mxGeometry>
        </mxCell>
        <mxCell id="JZROtMAfgJJSasp0t0-5-66" value="" style="shape=tableRow;horizontal=0;startSize=0;swimlaneHead=0;swimlaneBody=0;strokeColor=inherit;top=0;left=0;bottom=0;right=0;collapsible=0;dropTarget=0;fillColor=none;points=[[0,0.5],[1,0.5]];portConstraint=eastwest;fontSize=16;" parent="JZROtMAfgJJSasp0t0-5-57" vertex="1">
          <mxGeometry y="170" width="330" height="70" as="geometry" />
        </mxCell>
        <mxCell id="JZROtMAfgJJSasp0t0-5-67" value="..." style="shape=partialRectangle;html=1;whiteSpace=wrap;connectable=0;strokeColor=inherit;overflow=hidden;fillColor=none;top=0;left=0;bottom=0;right=0;pointerEvents=1;fontSize=16;" parent="JZROtMAfgJJSasp0t0-5-66" vertex="1">
          <mxGeometry width="120" height="70" as="geometry">
            <mxRectangle width="120" height="70" as="alternateBounds" />
          </mxGeometry>
        </mxCell>
        <mxCell id="JZROtMAfgJJSasp0t0-5-68" value="..." style="shape=partialRectangle;html=1;whiteSpace=wrap;connectable=0;strokeColor=inherit;overflow=hidden;fillColor=none;top=0;left=0;bottom=0;right=0;pointerEvents=1;fontSize=16;" parent="JZROtMAfgJJSasp0t0-5-66" vertex="1">
          <mxGeometry x="120" width="210" height="70" as="geometry">
            <mxRectangle width="210" height="70" as="alternateBounds" />
          </mxGeometry>
        </mxCell>
      </root>
    </mxGraphModel>
  </diagram>
</mxfile>
